<?xml version="1.0" encoding="utf-8"?>
<!-- Generator: Adobe Illustrator 18.0.0, SVG Export Plug-In . SVG Version: 6.00 Build 0)  -->
<svg version="1.2" baseProfile="tiny" id="Layer_1" xmlns="http://www.w3.org/2000/svg" xmlns:xlink="http://www.w3.org/1999/xlink"
	 x="0px" y="0px" viewBox="0 0 200 200" xml:space="preserve">
<g>
	<path fill="#EBEBEB" d="M2.8,200c-1.6,0-2.8-1.3-2.8-2.8V2.8C0,1.3,1.3,0,2.8,0h194.3c1.6,0,2.8,1.3,2.8,2.8v194.3
		c0,1.6-1.3,2.8-2.8,2.8H2.8z"/>
	<path fill="#D8D8D8" d="M183.3,200c-25.5-24.5-43.2-28.6-47.9-33.3c-21.1-21,22.9-38.5,22.9-83.6c0-31.3-21.3-62.9-56.6-62.9
		c-0.1,0-0.1,0-0.2,0h-0.1c-35.4,0-56.7,31.7-56.7,62.9c0,45.2,44,62.7,22.9,83.6c-4.7,4.7-25.2,8.8-50.7,33.3H183.3z"/>
</g>
</svg>
