<?xml version="1.0" encoding="utf-8"?>
<!-- Generator: Adobe Illustrator 18.1.1, SVG Export Plug-In . SVG Version: 6.00 Build 0)  -->
<svg version="1.1" id="Ebene_1" xmlns="http://www.w3.org/2000/svg" xmlns:xlink="http://www.w3.org/1999/xlink" x="0px" y="0px"
	 viewBox="0 0 743 303.6" enable-background="new 0 0 743 303.6" xml:space="preserve">
<g>
	<g>
		<path fill="#818489" d="M288.9,167.3h7.1v58.3c0,5.1,3.2,5,6,5h29.4v7.1H302c-6.3,0-13.1-1.3-13.1-12.1V167.3z"/>
		<path fill="#818489" d="M338.7,219.8c0-7.7,4.8-12.8,12.8-12.8c0,0,21.3,0.1,21.3,0c0,0,0.1-6.3,0-6.4c0-5.9-3.1-7.9-7.9-7.9
			c-6.9,0-15.3,0.5-24.6,1.2v-5.2c6.8-1.9,15.4-2.8,24.9-2.9c8-0.1,14.7,4.2,14.7,14.8v37.2h-5.3l-1.8-6.2c-0.2,0-12.6,6.7-21.3,6.7
			c-7,0-12.8-4.5-12.8-12.7V219.8z M351.5,231.2c7.7,0,21.3-4.9,21.3-4.9v-13.7l-21.3,1.5c-4.1,0.4-5.7,3.2-5.7,6.3v4.8
			C345.8,229.8,348.2,231.2,351.5,231.2"/>
		<path fill="#818489" d="M426.1,186.7l-15.4,40.6c-0.3,0.8-0.8,1.1-1.5,1.1c-0.7,0-1.2-0.3-1.5-1.1l-15.2-40.6h-7.8l18.6,47.2
			c1.2,3,3.2,4.5,5.8,4.5c2.6,0,4.7-1.5,5.9-4.5l18.9-47.2H426.1z"/>
		<path fill="#818489" d="M439.2,219.8c0-7.7,4.8-12.8,12.8-12.8c0,0,21.3,0.1,21.3,0c0,0,0.1-6.3,0-6.4c0-5.9-3.1-7.9-7.9-7.9
			c-6.9,0-15.3,0.5-24.6,1.2v-5.2c6.8-1.9,15.4-2.8,24.9-2.9c8-0.1,14.7,4.2,14.7,14.8v37.2h-5.3l-1.8-6.2c-0.2,0-12.6,6.7-21.3,6.7
			c-7,0-12.8-4.5-12.8-12.7V219.8z M452,231.2c7.7,0,21.3-4.9,21.3-4.9v-13.7l-21.3,1.5c-4.1,0.4-5.7,3.2-5.7,6.3v4.8
			C446.3,229.8,448.7,231.2,452,231.2"/>
		<path fill="#818489" d="M489.6,162.3h6.9v27.5c6.2-2.5,14.6-3.8,18.9-3.8c14.5,0,16.8,13.5,16.8,26.5c0,11.7-2.9,25.9-16.8,25.9
			c-6.5,0-16.3-4.4-18.8-6.3l-1.9,5.7h-5.1V162.3z M515.4,231.2c6.3,0,9.7-6.2,9.7-18.7c0-15.7-3.6-19.4-9.7-19.4
			c-7.4,0-12.2,0.8-18.8,2.5v31.3C501.8,228.9,507.8,231.2,515.4,231.2"/>
		<path fill="#818489" d="M562,186.2c17.2,0,22.5,6.4,22.5,26.7c0,18.9-5.3,25.3-22.5,25.3c-17.2,0-22.5-7-22.5-25.3
			C539.5,192.1,545.2,186.2,562,186.2 M562,231.1c10.4,0,15.4-1.3,15.4-18.2c0-18.3-4.1-19.6-15.4-19.6c-10.8,0-15.4,1.3-15.4,19.6
			C546.6,229.9,552,231.1,562,231.1"/>
		<path fill="#818489" d="M614.1,186.2c17.2,0,22.5,6.4,22.5,26.7c0,18.9-5.3,25.3-22.5,25.3c-17.2,0-22.5-7-22.5-25.3
			C591.6,192.1,597.4,186.2,614.1,186.2 M614.1,231.1c10.4,0,15.4-1.3,15.4-18.2c0-18.3-4.1-19.6-15.4-19.6
			c-10.8,0-15.4,1.3-15.4,19.6C598.8,229.9,604.2,231.1,614.1,231.1"/>
		<path fill="#818489" d="M647.2,186.7h5l2.1,6.2c5.9-3.4,10.6-6.7,18.2-6.7c6.3,0,11.9,2.8,14.1,7.5c5-4.1,12-7.5,20.6-7.5
			c8.8,0,15.8,6.6,15.8,16.4v35.2h-7.1v-35.2c0-5.7-3.7-9.3-8.7-9.3c-7.6,0-12.5,1.2-18.8,5.4v3.8v35.4h-7.1v-35.2
			c0-5.7-3.7-9.3-8.7-9.3c-7.4,0-10.8,1.8-18.2,5.4v39.1h-7.1V186.7z"/>
	</g>
</g>
<g>
	<g>
		<g>
			<path fill="#818489" d="M204.8,106.3c0,0,16.2-16.5,5.7-29.5c-15.2-18.7-9.3-33.5-9.3-33.5S182.8,64,186.7,81.2
				C190.8,99.6,204.8,106.3,204.8,106.3z"/>
			<g>
				<path fill="#818489" d="M233.2,195.8c-5.3-83.2-99.6-104.9-94-175.8c-9,8-45.1,43.7-30.5,76.7c6.5,14.7,15.2,41.8-7.5,50.2
					C72,157.7,56.8,124.2,66.9,84.6c-10.7,11.9-42.2,53.1-46.2,113.3c-2.2,33.2,1.3,51.9,3,61.3c1.6,8.7,8.6,20.4,22.6,21.5
					c14,1.1,32.8,2.9,81.5,2.9c48.7,0,65.3-0.8,79.9-2.9c14.7-2.1,21.3-13.2,23.2-22C232.8,250,235.9,238.3,233.2,195.8z"/>
			</g>
		</g>
	</g>
	<path fill="#F5F5F5" d="M213.6,193.8l-58.4,35.2c-4.1,2.5-11.4,6-16.1,7.9c-0.8,0.3-5.3,1.9-12.8,1.9c-7.7,0-12.3-1.7-12.8-1.9
		c-4.8-1.9-12-5.4-16.1-7.9l-59.1-35.7c-1.8-1.3-1.6-3-0.5-4.6c1.1-1.6,2.9-2.4,6-0.4l59.1,35.7c3.7,2.2,10.4,5.5,14.7,7.2
		c0,0,3.2,1.1,8.7,1.1c5.3,0,8.4-1,8.8-1.2c4.2-1.7,10.9-4.9,14.6-7.2l59.1-35.7c1.7-1.1,4.4-1.8,6,0.4
		C216.5,191.1,215.5,192.6,213.6,193.8z"/>
</g>
</svg>
