<?xml version="1.0"?><svg width="425.2" height="425.2" xmlns="http://www.w3.org/2000/svg" xmlns:svg="http://www.w3.org/2000/svg"><style>.s0{stop-color:#f29100}.s1{stop-color:#ef7d08}.s2{stop-color:#ea5b16}.s3{stop-color:#e84e1b}</style><defs><linearGradient y2="0.980396" x2="0.500161" y1="0.024162" x1="0.500161" id="svg_3"><stop stop-color="#F29100" offset="0"/><stop stop-color="#EF7D08" offset="0.25"/><stop stop-color="#EA5B16" offset="0.74"/><stop stop-color="#E84E1B" offset="1"/></linearGradient></defs><linearGradient id="SVGID_1_" x1="0.491651" y1="-0.269424" x2="0.491651" y2="3.730935"><stop offset="0" stop-color="#F29100"/><stop offset="0.25" stop-color="#EF7D08"/><stop offset="0.74" stop-color="#EA5B16"/><stop offset="1" stop-color="#E84E1B"/></linearGradient><linearGradient id="SVGID_2_" x1="0.500161" y1="0.024162" x2="0.500161" y2="0.980396"><stop offset="0" stop-color="#F29100"/><stop offset="0.25" stop-color="#EF7D08"/><stop offset="0.74" stop-color="#EA5B16"/><stop offset="1" stop-color="#E84E1B"/></linearGradient><g><title>Layer 1</title><rect fill="#fff" x="132.7" y="235" width="159" height="61" id="svg_4"/><path fill="url(#SVGID_1_)" d="m281.600006,173c0,0 14.300018,-14.600006 5,-26c-13.399994,-16.5 -8.199982,-29.599998 -8.199982,-29.599998s-16.300018,18.299995 -12.800018,33.400002c3.699982,16.300003 16,22.199997 16,22.199997z" id="svg_1"/><path fill="url(#SVGID_2_)" d="m306.700012,251.899994c-4.700012,-73.400009 -87.800003,-92.599991 -82.900009,-155.100006c-7.899994,7 -39.799988,38.5 -26.899994,67.600006c5.699997,13 13.399994,36.899994 -6.699997,44.300003c-25.699997,9.5 -39.199997,-20 -30.300003,-54.900024c-9.5,10.5 -37.199997,46.800003 -40.699997,100c-2,29.300003 1.099998,45.800003 2.599998,54.100021c1.400002,7.699982 7.599998,18 19.900002,19c12.300003,1 29,2.5 71.899994,2.5c42.899994,0 57.600006,-0.700012 70.5,-2.5c13,-1.900024 18.800018,-11.700012 20.5,-19.400024c1.699982,-7.799957 4.5,-18.099976 2.100006,-55.599976zm-17.300018,-1.699997l-51.5,31.099991c-3.600006,2.200012 -10,5.300018 -14.199997,7c-0.700012,0.300018 -4.700012,1.700012 -11.300003,1.700012c-6.800003,0 -10.800003,-1.5 -11.300003,-1.700012c-4.199997,-1.599976 -10.600006,-4.799988 -14.199997,-7l-52.199997,-31.499985c-1.600006,-1.100006 -1.400009,-2.699997 -0.400009,-4c1,-1.400009 2.600006,-2.100006 5.300003,-0.300003l52.199997,31.5c3.300003,2 9.199997,4.899994 13,6.299988c0,0 2.800003,1 7.699997,1c4.700012,0 7.400009,-0.899994 7.700012,-1c3.699997,-1.5 9.599991,-4.399994 12.899994,-6.299988l52.199997,-31.5c1.5,-0.899994 3.899994,-1.600006 5.299988,0.300003c1.400024,1.899994 0.500031,3.300003 -1.199982,4.399994z" id="svg_2"/></g></svg>