<svg xmlns="http://www.w3.org/2000/svg" version="1.1" id="Ebene_1" x="0" y="0" viewBox="0 0 425.2 425.2" enable-background="new 0 0 425.2 425.2" xml:space="preserve"><style>.s0{stop-color:#F29100;}.s1{stop-color:#EF7D08;}.s2{stop-color:#EA5B16;}.s3{stop-color:#E84E1B;}</style><linearGradient id="SVGID_1_" gradientUnits="userSpaceOnUse" x1="277.47" y1="102.42" x2="277.47" y2="324.84"><stop offset="0" stop-color="#F29100"/><stop offset="0.25" stop-color="#EF7D08"/><stop offset="0.74" stop-color="#EA5B16"/><stop offset="1" stop-color="#E84E1B"/></linearGradient><path fill="url(#SVGID_1_)" d="M281.6 173c0 0 14.3-14.6 5-26 -13.4-16.5-8.2-29.6-8.2-29.6s-16.3 18.3-12.8 33.4C269.3 167.1 281.6 173 281.6 173z"/><linearGradient id="SVGID_2_" gradientUnits="userSpaceOnUse" x1="213.12" y1="102.42" x2="213.12" y2="324.84"><stop offset="0" stop-color="#F29100"/><stop offset="0.25" stop-color="#EF7D08"/><stop offset="0.74" stop-color="#EA5B16"/><stop offset="1" stop-color="#E84E1B"/></linearGradient><path fill="url(#SVGID_2_)" d="M306.7 251.9c-4.7-73.4-87.8-92.6-82.9-155.1 -7.9 7-39.8 38.5-26.9 67.6 5.7 13 13.4 36.9-6.7 44.3 -25.7 9.5-39.2-20-30.3-54.9 -9.5 10.5-37.2 46.8-40.7 100 -2 29.3 1.1 45.8 2.6 54.1 1.4 7.7 7.6 18 19.9 19 12.3 1 29 2.5 71.9 2.5 42.9 0 57.6-0.7 70.5-2.5 13-1.9 18.8-11.7 20.5-19.4C306.3 299.7 309.1 289.4 306.7 251.9zM289.4 250.2l-51.5 31.1c-3.6 2.2-10 5.3-14.2 7 -0.7 0.3-4.7 1.7-11.3 1.7 -6.8 0-10.8-1.5-11.3-1.7 -4.2-1.6-10.6-4.8-14.2-7l-52.2-31.5c-1.6-1.1-1.4-2.7-0.4-4 1-1.4 2.6-2.1 5.3-0.3l52.2 31.5c3.3 2 9.2 4.9 13 6.3 0 0 2.8 1 7.7 1 4.7 0 7.4-0.9 7.7-1 3.7-1.5 9.6-4.4 12.9-6.3l52.2-31.5c1.5-0.9 3.9-1.6 5.3 0.3C292 247.7 291.1 249.1 289.4 250.2z"/></svg>