<svg width="88" height="14" xmlns="http://www.w3.org/2000/svg">
 <g>
  <title>Layer 1</title>
  <g id="svg_4">
   <g id="svg_5">
    <path fill="#FFFFFF" d="m0.008556,1.268474h1.199999v10.199989c0,0.899999 0.600001,0.899999 1,0.899999h5.100029v1.200001h-5.000028c-1.100002,0 -2.3,-0.200001 -2.3,-2.099999v-10.199989l0,0z" id="svg_6"/>
    <path fill="#FFFFFF" d="m8.70859,10.468463c0,-1.299994 0.8,-2.199988 2.199991,-2.199988c0,0 3.699951,0 3.699951,0c0,0 0,-1.100001 0,-1.100001c0,-1 -0.499992,-1.399998 -1.399982,-1.399998c-1.199984,0 -2.699967,0.099998 -4.29996,0.200001v-0.900002c1.199999,-0.299999 2.699979,-0.5 4.29996,-0.5c1.399982,0 2.599967,0.700001 2.599967,2.599998v6.499991h-0.799989l-0.299994,-1.100002c0,0 -2.199976,1.200005 -3.699958,1.200005c-1.199983,0 -2.199983,-0.799999 -2.199983,-2.200005v-1.099999l-0.100003,0zm2.199991,2c1.29998,0 3.699951,-0.900001 3.699951,-0.900001v-2.399993l-3.699951,0.299999c-0.699995,0.099998 -0.999991,0.599997 -0.999991,1.099994v0.799999c0,0.900002 0.399998,1.100001 0.999991,1.100001z" id="svg_7"/>
    <path fill="#FFFFFF" d="m18.108515,4.668474l2.799999,7.099993l2.800001,-7.099993h1.299999l-3.6,8.899989h-1.199999l-3.5,-8.899989h1.4l0,0z" id="svg_8"/>
    <path fill="#FFFFFF" d="m25.708515,10.468463c0,-1.299994 0.799999,-2.199988 2.200001,-2.199988c0,0 3.699997,0 3.699997,0c0,0 0,-1.100001 0,-1.100001c0,-1 -0.5,-1.399998 -1.399998,-1.399998c-1.200001,0 -2.700001,0.099998 -4.300001,0.200001v-0.900002c1.199999,-0.299999 2.699999,-0.5 4.300001,-0.5c1.399998,0 2.599998,0.700001 2.599998,2.599998v6.499991h-0.799999l-0.299999,-1.100002c0,0 -2.200001,1.200005 -3.700001,1.200005c-1.200001,0 -2.200001,-0.799999 -2.200001,-2.200005v-1.099999l-0.099998,0zm2.200001,2c1.299999,0 3.699997,-0.900001 3.699997,-0.900001v-2.399993l-3.699997,0.299999c-0.700001,0.099998 -1,0.599997 -1,1.099994v0.799999c0.099998,0.900002 0.5,1.100001 1,1.100001z" id="svg_9"/>
    <path fill="#FFFFFF" d="m34.808514,0.368473h1.200001v4.800001c1.099998,-0.399998 2.599998,-0.699997 3.299999,-0.699997c2.5,0 2.900002,2.399998 2.900002,4.599994c0,2.099991 -0.5,4.499991 -2.900002,4.499991c-1.099998,0 -2.899998,-0.799995 -3.299999,-1.099999l-0.299999,1h-0.900002v-13.09999l0,0zm4.5,12.09999c1.100002,0 1.700001,-1.100001 1.700001,-3.299994c0,-2.699993 -0.599998,-3.399993 -1.700001,-3.399993c-1.299999,0 -2.099998,0.099998 -3.299999,0.399998v5.499991c0.900002,0.400001 1.900002,0.799998 3.299999,0.799998z" id="svg_10"/>
    <path fill="#FFFFFF" d="m47.608513,4.568475c3,0 3.900002,1.099998 3.900002,4.699996c0,3.299992 -0.900002,4.399994 -3.900002,4.399994c-3,0 -3.899998,-1.200002 -3.899998,-4.399994c0,-3.599997 1,-4.699996 3.899998,-4.699996zm0,7.899988c1.800003,0 2.700001,-0.2 2.700001,-3.199992c0,-3.199996 -0.700001,-3.399996 -2.700001,-3.399996c-1.899998,0 -2.699997,0.200001 -2.699997,3.399996c0.099998,2.999992 1,3.199992 2.699997,3.199992z" id="svg_11"/>
    <path fill="#FFFFFF" d="m57.008514,4.568475c3,0 3.900002,1.099998 3.900002,4.699996c0,3.299992 -0.900002,4.399994 -3.900002,4.399994c-3,0 -3.900002,-1.200002 -3.900002,-4.399994c0,-3.599997 1,-4.699996 3.900002,-4.699996zm0,7.899988c1.800003,0 2.699997,-0.2 2.699997,-3.199992c0,-3.199996 -0.699997,-3.399996 -2.699997,-3.399996c-1.900002,0 -2.700001,0.200001 -2.700001,3.399996c0,2.999992 1,3.199992 2.700001,3.199992z" id="svg_12"/>
    <path fill="#FFFFFF" d="m62.808517,4.668474h0.899994l0.400002,1.100002c1,-0.600002 1.800003,-1.200001 3.200005,-1.200001c1.099998,0 2.099998,0.5 2.5,1.299999c0.899994,-0.700001 2.099998,-1.299999 3.599998,-1.299999c1.5,0 2.799995,1.200001 2.799995,2.900002v6.199988h-1.199997v-6.199988c0,-1 -0.599998,-1.600002 -1.5,-1.600002c-1.300003,0 -2.199997,0.200001 -3.300003,0.900002v0.700001v6.199988h-1.199997v-6.199988c0,-1 -0.699997,-1.600002 -1.5,-1.600002c-1.300003,0 -1.900002,0.299999 -3.199997,0.900002v6.899989h-1.200005v-8.999991l-0.299995,0l0,0z" id="svg_13"/>
   </g>
  </g>
 </g>
</svg>