<svg width="172.413" height="82.5" xmlns="http://www.w3.org/2000/svg"><title>Layer 1</title><g fill="#FFF"><path d="M70.265 42.685h1.285v10.522c0 .92.574.902 1.076.902h5.314v1.284h-5.314c-1.146 0-2.36-.227-2.36-2.188v-10.52zM79.24 52.147c0-1.39.87-2.31 2.312-2.31 0 0 3.854.018 3.854 0 0 0 .018-1.146 0-1.162 0-1.06-.555-1.425-1.422-1.425-1.252 0-2.762.087-4.445.208v-.938c1.23-.347 2.776-.503 4.495-.52 1.44-.02 2.658.763 2.658 2.674v6.72h-.955l-.332-1.112c-.035 0-2.273 1.215-3.854 1.215-1.268 0-2.31-.815-2.31-2.29v-1.06zm2.312 2.066c1.39 0 3.854-.885 3.854-.885v-2.482l-3.854.277c-.746.068-1.027.572-1.027 1.13v.867c0 .833.437 1.093 1.027 1.093zM88.966 46.175l2.883 7.327 2.913-7.327h1.408l-3.696 9.22H91.19l-3.63-9.22h1.406zM96.868 52.147c0-1.39.867-2.31 2.307-2.31 0 0 3.855.018 3.855 0 0 0 .018-1.146 0-1.162 0-1.06-.555-1.425-1.424-1.425-1.25 0-2.762.087-4.445.208v-.938c1.233-.347 2.78-.503 4.497-.52 1.443-.02 2.658.763 2.658 2.674v6.72h-.955l-.33-1.112c-.035 0-2.273 1.215-3.855 1.215-1.266 0-2.307-.815-2.307-2.29v-1.06zm2.307 2.066c1.39 0 3.855-.885 3.855-.885v-2.482l-3.855.277c-.746.068-1.023.572-1.023 1.13v.867c0 .833.433 1.093 1.023 1.093zM106.228 41.765h1.248v4.966c1.11-.45 2.64-.694 3.42-.694 2.623 0 3.04 2.432 3.04 4.793 0 2.116-.522 4.67-3.04 4.67-1.18 0-2.95-.8-3.402-1.13l-.348 1.025h-.918v-13.63zm4.668 12.448c1.13 0 1.756-1.13 1.756-3.385 0-2.83-.645-3.508-1.756-3.508-1.336 0-2.203.14-3.402.45v5.645c.937.382 2.03.798 3.402.798zM119.562 46.088c3.107 0 4.062 1.163 4.062 4.826 0 3.42-.955 4.566-4.062 4.566s-4.062-1.268-4.062-4.566c0-3.767 1.04-4.826 4.062-4.826zm0 8.108c1.875 0 2.777-.243 2.777-3.282 0-3.3-.75-3.542-2.778-3.542-1.945 0-2.78.227-2.78 3.542 0 3.074.99 3.282 2.78 3.282zM129.25 46.088c3.108 0 4.063 1.163 4.063 4.826 0 3.42-.955 4.566-4.064 4.566-3.108 0-4.063-1.268-4.063-4.566 0-3.767 1.04-4.826 4.062-4.826zm0 8.108c1.876 0 2.778-.243 2.778-3.282 0-3.3-.746-3.542-2.78-3.542-1.942 0-2.774.227-2.774 3.542 0 3.074.988 3.282 2.775 3.282zM135.224 46.175h.902l.38 1.11c1.063-.607 1.913-1.215 3.284-1.215 1.127 0 2.152.504 2.553 1.354.902-.747 2.168-1.354 3.715-1.354 1.598 0 2.848 1.197 2.848 2.97v6.354h-1.285V49.04c0-1.025-.66-1.685-1.56-1.685-1.372 0-2.26.226-3.403.972v7.068h-1.285V49.04c0-1.024-.678-1.684-1.58-1.684-1.338 0-1.945.33-3.283.972v7.067h-1.284v-9.22h-.002z"/></g><linearGradient id="a" x1="-.695" y1="4.271" x2="-1.904" y2="8.016"><stop offset="0" stop-color="#F7941E"/><stop offset="1" stop-color="#F15A29"/></linearGradient><path fill="url(#a)" d="M55.138 30.663s2.928-2.983 1.023-5.32c-2.743-3.37-1.675-6.056-1.675-6.056s-3.328 3.74-2.625 6.843c.752 3.325 3.278 4.533 3.278 4.533z"/><linearGradient id="b" x1=".5" y1=".044" x2=".5" y2=".947"><stop offset="0" stop-color="#F7941E"/><stop offset="1" stop-color="#F15A29"/></linearGradient><path fill="url(#b)" d="M60.26 46.824C59.297 31.8 42.29 27.876 43.295 15.078c-1.62 1.44-8.135 7.88-5.498 13.846 1.178 2.66 2.746 7.544-1.36 9.064-5.27 1.95-8.02-4.094-6.198-11.246-1.938 2.148-7.613 9.588-8.34 20.465-.402 5.988.23 9.37.54 11.07.28 1.57 1.542 3.677 4.07 3.882 2.526.203 5.93.52 14.722.52s11.787-.143 14.43-.52c2.662-.383 3.846-2.392 4.193-3.98.34-1.573.902-3.68.408-11.356z"/><path fill="#F1F2F2" d="M56.624 44.986l-10.53 7.338c-.733.514-2.02 1.24-2.864 1.622-.146.065-.94.39-2.273.39-1.373 0-2.186-.35-2.273-.39-.846-.382-2.13-1.11-2.867-1.622L25.29 44.986c-.162-.11-.264-.277-.28-.455-.015-.177.052-.35.188-.48.262-.256.756-.29 1.064-.076l10.53 7.34c.657.456 1.854 1.134 2.612 1.477 0 0 .572.236 1.553.236.95 0 1.502-.215 1.562-.238.747-.34 1.942-1.018 2.603-1.476l10.523-7.337c.312-.217.807-.18 1.066.074.14.132.205.304.19.48-.016.18-.118.346-.278.456z"/></svg>