<svg xmlns="http://www.w3.org/2000/svg" viewBox="0 0 88 88"><linearGradient id="a" gradientUnits="userSpaceOnUse" x1="-.884" y1="174.959" x2="-.884" y2="216.695" gradientTransform="matrix(.99 .139 -.139 .99 76.288 -101.015)"><stop offset="0" stop-color="#FF9100"/><stop offset="1" stop-color="#FF4D0E"/></linearGradient><path fill="url(#a)" d="M57.6 36s2.8-2.9 1-5.2C55.9 27.6 57 25 57 25s-3.2 3.6-2.5 6.6c.7 3.3 3.1 4.4 3.1 4.4z"/><linearGradient id="b" gradientUnits="userSpaceOnUse" x1="44" y1="22.921" x2="44" y2="64.66"><stop offset="0" stop-color="#FF9100"/><stop offset="1" stop-color="#FF4D0E"/></linearGradient><path fill="url(#b)" d="M62.6 51.7c-.9-14.6-17.4-18.4-16.5-30.8-1.6 1.4-7.9 7.6-5.3 13.4 1.1 2.6 2.7 7.3-1.3 8.8-5.1 1.9-7.8-4-6-10.9-1.9 2.1-7.4 9.3-8.1 19.9-.4 5.8.2 9.1.5 10.7.3 1.5 1.5 3.6 3.9 3.8 2.5.2 5.8.5 14.3.5s11.4-.1 14-.5c2.6-.4 3.7-2.3 4.1-3.9.3-1.5.9-3.5.4-11z"/><path fill="#FFF" d="M59 49.9L48.8 57c-.7.5-2 1.2-2.8 1.6-.1.1-.9.4-2.2.4-1.3 0-2.1-.3-2.2-.4-.8-.4-2.1-1.1-2.8-1.6l-10.2-7.1c-.2-.1-.3-.3-.3-.4 0-.2.1-.3.2-.5.3-.2.7-.3 1-.1L39.7 56c.6.4 1.8 1.1 2.5 1.4 0 0 .6.2 1.5.2s1.5-.2 1.5-.2c.7-.3 1.9-1 2.5-1.4l10.2-7.1c.3-.2.8-.2 1 .1.1.1.2.3.2.5.2.2.1.3-.1.4z"/></svg>