<svg width="172.413" height="82.5" xmlns="http://www.w3.org/2000/svg" xmlns:svg="http://www.w3.org/2000/svg">
 <g>
  <title>Layer 1</title>
  <g id="svg_1">
   <g id="logo-text">
    <g id="svg_4">
     <g id="svg_5">
      <path fill="#FFFFFF" d="m70.264999,42.685001l1.285004,0l0,10.521999c0,0.919998 0.573997,0.902 1.075996,0.902l5.314003,0l0,1.285l-5.314003,0c-1.145996,0 -2.361,-0.227001 -2.361,-2.188l0,-10.521z" id="svg_6"/>
      <path fill="#FFFFFF" d="m79.240997,52.146999c0,-1.389999 0.869003,-2.309998 2.311005,-2.309998c0,0 3.853996,0.017998 3.853996,0c0,0 0.018013,-1.146 0,-1.162003c0,-1.061001 -0.555,-1.424999 -1.421997,-1.424999c-1.251999,0 -2.762001,0.087002 -4.445,0.208l0,-0.938c1.232002,-0.347 2.777,-0.503002 4.496002,-0.521c1.440987,-0.018002 2.657997,0.764 2.657997,2.674999l0,6.719002l-0.955002,0l-0.332001,-1.111c-0.034996,0 -2.272987,1.215 -3.853996,1.215c-1.268013,0 -2.311005,-0.815002 -2.311005,-2.291l0,-1.059002zm2.311005,2.066002c1.389,0 3.853996,-0.885002 3.853996,-0.885002l0,-2.481998l-3.853996,0.277c-0.746002,0.068001 -1.027,0.571999 -1.027,1.128998l0,0.868c-0.000999,0.833 0.436996,1.093002 1.027,1.093002z" id="svg_7"/>
      <path fill="#FFFFFF" d="m88.966003,46.174999l2.882996,7.327l2.914001,-7.327l1.407997,0l-3.696999,9.220001l-1.284996,0l-3.629013,-9.220001l1.406013,0z" id="svg_8"/>
      <path fill="#FFFFFF" d="m96.867996,52.146999c0,-1.389999 0.867004,-2.309998 2.307014,-2.309998c0,0 3.854996,0.017998 3.854996,0c0,0 0.018005,-1.146 0,-1.162003c0,-1.061001 -0.554993,-1.424999 -1.423996,-1.424999c-1.25,0 -2.762001,0.087002 -4.445,0.208l0,-0.938c1.231987,-0.347 2.778999,-0.503002 4.495987,-0.521c1.443001,-0.018002 2.658005,0.764 2.658005,2.674999l0,6.719002l-0.955002,0l-0.330002,-1.111c-0.034996,0 -2.272987,1.215 -3.854996,1.215c-1.266014,0 -2.307014,-0.815002 -2.307014,-2.291l0,-1.059002l0.000008,0zm2.307014,2.066002c1.390999,0 3.854996,-0.885002 3.854996,-0.885002l0,-2.481998l-3.854996,0.277c-0.746002,0.068001 -1.023003,0.571999 -1.023003,1.128998l0,0.868c-0.000999,0.833 0.432999,1.093002 1.023003,1.093002z" id="svg_9"/>
      <path fill="#FFFFFF" d="m106.227997,41.764999l1.248001,0l0,4.966c1.111,-0.452 2.640999,-0.695 3.420013,-0.695c2.622986,0 3.038986,2.431999 3.038986,4.792999c0,2.117001 -0.520996,4.670002 -3.038986,4.670002c-1.18,0 -2.951004,-0.799 -3.402,-1.129002l-0.348,1.025002l-0.918015,0l0,-13.630001zm4.668015,12.448002c1.128998,0 1.755997,-1.129002 1.755997,-3.385002c0,-2.830997 -0.644997,-3.507999 -1.755997,-3.507999c-1.336014,0 -2.203003,0.139 -3.402,0.451l0,5.644001c0.936996,0.382 2.029999,0.798 3.402,0.798z" id="svg_10"/>
      <path fill="#FFFFFF" d="m119.561996,46.088001c3.107002,0 4.062004,1.162998 4.062004,4.826c0,3.420998 -0.955002,4.565998 -4.062004,4.565998s-4.061996,-1.267998 -4.061996,-4.565998c-0.000999,-3.767002 1.040001,-4.826 4.061996,-4.826zm0,8.107998c1.875,0 2.777,-0.243 2.777,-3.281998c0,-3.299 -0.747986,-3.542 -2.777,-3.542c-1.945,0 -2.778999,0.226997 -2.778999,3.542c-0.000999,3.073997 0.989014,3.281998 2.778999,3.281998z" id="svg_11"/>
      <path fill="#FFFFFF" d="m129.248993,46.088001c3.108994,0 4.063995,1.162998 4.063995,4.826c0,3.420998 -0.955002,4.565998 -4.063995,4.565998c-3.107002,0 -4.062004,-1.267998 -4.062004,-4.565998c0.000008,-3.767002 1.041008,-4.826 4.062004,-4.826zm0,8.107998c1.876999,0 2.778992,-0.243 2.778992,-3.281998c0,-3.299 -0.746002,-3.542 -2.778992,-3.542c-1.943001,0 -2.775002,0.226997 -2.775002,3.542c0.000008,3.073997 0.988007,3.281998 2.775002,3.281998z" id="svg_12"/>
      <path fill="#FFFFFF" d="m135.223999,46.174999l0.902008,0l0.380997,1.111c1.062012,-0.607998 1.912003,-1.216 3.28299,-1.216c1.127014,0 2.152023,0.504002 2.553024,1.354c0.901978,-0.746998 2.167999,-1.354 3.714996,-1.354c1.598007,0 2.848007,1.196999 2.848007,2.969002l0,6.355l-1.285004,0l0,-6.355c0,-1.024002 -0.660004,-1.684002 -1.561996,-1.684002c-1.371002,0 -2.258011,0.226002 -3.402008,0.972l0,0.678001l0,6.389999l-1.285004,0l0,-6.355c0,-1.024002 -0.677994,-1.684002 -1.579987,-1.684002c-1.338013,0 -1.945007,0.330002 -3.283005,0.972l0,7.067001l-1.283005,0l0,-9.220001l-0.001999,0l-0.000015,0z" id="svg_13"/>
     </g>
    </g>
   </g>
   <g id="main-logo">
    <g id="svg_15">
     <g id="svg_17">
      <g id="svg_18">
       <linearGradient transform="translate(1,0) translate(-1,0) " id="SVGID_1_" x1="-0.69512" y1="4.27079" x2="-1.90449" y2="8.01611">
        <stop offset="0" stop-color="#F7941E"/>
        <stop offset="1" stop-color="#F15A29"/>
       </linearGradient>
       <path fill="url(#SVGID_1_)" d="m55.138,30.663c0,0 2.928001,-2.983 1.022999,-5.319c-2.743999,-3.371 -1.675999,-6.056999 -1.675999,-6.056999s-3.327999,3.74 -2.625,6.842999c0.751999,3.325001 3.278,4.533001 3.278,4.533001z" id="svg_19"/>
       <linearGradient transform="translate(1,0) translate(-1,0) " id="SVGID_2_" x1="0.49999" y1="0.04354" x2="0.49999" y2="0.94737">
        <stop offset="0" stop-color="#F7941E"/>
        <stop offset="1" stop-color="#F15A29"/>
       </linearGradient>
       <path fill="url(#SVGID_2_)" d="m60.261002,46.824001c-0.965,-15.023001 -17.973003,-18.948002 -16.967003,-31.746001c-1.618999,1.44 -8.134998,7.881 -5.497997,13.846c1.177998,2.659 2.745998,7.543999 -1.359001,9.063999c-5.27,1.950001 -8.021,-4.093998 -6.198999,-11.245998c-1.938002,2.147999 -7.613001,9.588001 -8.34,20.465c-0.402,5.987999 0.23,9.369999 0.539,11.07c0.281,1.57 1.542999,3.676998 4.07,3.882c2.527,0.203999 5.931999,0.521 14.723,0.521s11.786999,-0.143002 14.43,-0.521c2.661999,-0.382 3.846001,-2.390999 4.193001,-3.978001c0.341,-1.574001 0.902,-3.681 0.408001,-11.356998z" id="svg_20"/>
      </g>
     </g>
    </g>
    <path fill="#F1F2F2" d="m56.624001,44.986l-10.528999,7.338001c-0.734001,0.514 -2.021,1.239998 -2.865002,1.621998c-0.146,0.065002 -0.938999,0.389 -2.272999,0.389c-1.373001,0 -2.186001,-0.349998 -2.273003,-0.388c-0.845997,-0.382999 -2.130997,-1.109997 -2.866997,-1.622997l-10.527,-7.338001c-0.162001,-0.110001 -0.264002,-0.277 -0.281,-0.455002c-0.014,-0.177998 0.052999,-0.349998 0.188999,-0.481998c0.261999,-0.255001 0.756001,-0.289001 1.063999,-0.075001l10.529001,7.339001c0.658001,0.457001 1.855,1.135002 2.612999,1.478001c0,0 0.572002,0.235001 1.553001,0.235001c0.948997,0 1.501999,-0.215 1.562,-0.238003c0.747997,-0.341 1.943001,-1.017998 2.604,-1.475998l10.522999,-7.337002c0.312,-0.216999 0.806999,-0.181 1.066002,0.074001c0.139,0.132999 0.204998,0.305 0.190998,0.481998c-0.016998,0.178001 -0.118999,0.345001 -0.278999,0.455002z" id="svg_21"/>
   </g>
  </g>
 </g>
</svg>