<?xml version="1.0" standalone="no"?>
<!DOCTYPE svg PUBLIC "-//W3C//DTD SVG 1.1//EN" "http://www.w3.org/Graphics/SVG/1.1/DTD/svg11.dtd" >
<svg xmlns="http://www.w3.org/2000/svg">
<metadata>Generated by IcoMoon</metadata>
<defs>
<font id="lavaboom" horiz-adv-x="1024">
<font-face units-per-em="1024" ascent="960" descent="-64" />
<missing-glyph horiz-adv-x="1024" />
<glyph unicode="&#x20;" d="" horiz-adv-x="512" />
<glyph unicode="&#x2b;" d="M942.054 463.846h-413.805v413.263c0 11.915-9.749 21.664-21.664 21.664s-21.664-9.749-21.664-21.664v-413.263h-408.931c-11.915 0-21.664-9.749-21.664-21.664s9.749-21.664 21.664-21.664h408.931v-410.014c0-11.915 9.749-21.664 21.664-21.664s21.664 9.749 21.664 21.664v410.014h413.805c11.915 0 21.664 9.749 21.664 21.664s-9.749 21.664-21.664 21.664z" />
<glyph unicode="&#x32;" d="M598.109 681.891c-100.073 34.909-214.109 4.655-281.6-76.8s-76.8-202.473-20.945-293.236c53.527-90.764 162.909-137.309 265.309-116.364 118.691 23.273 204.8 130.327 204.8 249.018 0 104.727-67.491 200.145-167.564 237.382zM512 237.382c-111.709 0-204.8 90.764-204.8 204.8s90.764 204.8 204.8 204.8 204.8-90.764 204.8-204.8-93.091-204.8-204.8-204.8z" />
<glyph unicode="&#x33;" d="M833.164 453.818h-107.055v69.818c0 6.982-4.655 11.636-11.636 11.636s-11.636-4.655-11.636-11.636v-69.818h-512c-6.982 0-11.636-4.655-11.636-11.636s4.655-11.636 11.636-11.636h512v-69.818c0-6.982 4.655-11.636 11.636-11.636s11.636 4.655 11.636 11.636v69.818h107.055c6.982 0 11.636 4.655 11.636 11.636s-6.982 11.636-11.636 11.636zM833.164 211.782h-402.618v69.818c0 6.982-4.655 11.636-11.636 11.636s-11.636-4.655-11.636-11.636v-69.818h-216.436c-6.982 0-11.636-4.655-11.636-11.636s4.655-11.636 11.636-11.636h216.436v-69.818c0-6.982 4.655-11.636 11.636-11.636s11.636 4.655 11.636 11.636v69.818h400.291c6.982 0 11.636 4.655 11.636 11.636s-4.655 11.636-9.309 11.636zM190.836 672.582h107.055v-69.818c0-6.982 4.655-11.636 11.636-11.636s11.636 4.655 11.636 11.636v69.818h512c6.982 0 11.636 4.655 11.636 11.636s-4.655 11.636-11.636 11.636h-512v69.818c0 6.982-4.655 11.636-11.636 11.636s-11.636-4.655-11.636-11.636v-69.818h-107.055c-6.982 0-11.636-4.655-11.636-11.636s6.982-11.636 11.636-11.636z" />
<glyph unicode="&#x34;" d="M595.782 165.237h-479.418c-6.982 0-11.636 4.655-11.636 11.636 0 155.927 107.055 204.8 153.6 225.745 6.982 2.327 16.291 6.982 16.291 9.309 13.964 13.964 11.636 23.273-9.309 53.527-18.618 25.6-41.891 58.182-41.891 109.382 0 72.145 48.873 146.618 132.655 146.618s132.655-74.473 132.655-146.618c0-51.2-23.273-83.782-41.891-109.382-20.945-30.255-25.6-37.236-9.309-53.527 2.327-2.327 9.309-4.655 16.291-9.309 46.545-20.945 153.6-67.491 153.6-225.745 0-6.982-6.982-11.636-11.636-11.636zM128 188.509h456.145c-4.655 132.655-95.418 172.218-139.636 190.836-11.636 4.655-18.618 9.309-23.273 13.964-30.255 30.255-11.636 55.855 6.982 81.455 16.291 23.273 37.236 51.2 37.236 95.418 0 60.509-41.891 123.345-109.382 123.345-69.818 0-109.382-62.836-109.382-123.345 0-44.218 20.945-72.145 37.236-95.418 18.618-25.6 37.236-53.527 6.982-81.455-4.655-4.655-11.636-6.982-23.273-13.964-44.218-18.618-134.982-58.182-139.636-190.836zM907.636 358.4h-193.164c-6.982 0-11.636 4.655-11.636 11.636s4.655 11.636 11.636 11.636h193.164c6.982 0 11.636-4.655 11.636-11.636s-4.655-11.636-11.636-11.636zM907.636 619.055h-293.236c-6.982 0-11.636 4.655-11.636 11.636s4.655 11.636 11.636 11.636h293.236c6.982 0 11.636-4.655 11.636-11.636s-4.655-11.636-11.636-11.636zM907.636 491.055h-293.236c-6.982 0-11.636 4.655-11.636 11.636s4.655 11.636 11.636 11.636h293.236c6.982 0 11.636-4.655 11.636-11.636s-4.655-11.636-11.636-11.636z" />
<glyph unicode="&#x35;" d="M886.691 812.218c0 2.327-2.327 6.982-4.655 6.982-2.327 2.327-4.655 2.327-9.309 2.327 0 0-27.927-4.655-74.473-4.655-39.564 0-76.8 4.655-114.036 11.636-107.055 20.945-165.236 69.818-167.564 72.145-4.655 4.655-11.636 4.655-13.964 0 0 0-58.182-48.873-167.564-72.145-37.236-6.982-76.8-11.636-114.036-11.636-44.218 0-72.145 4.655-74.473 4.655s-6.982 0-9.309-2.327c0-2.327 0-4.655 0-6.982-100.073-686.545 367.709-826.182 372.364-828.509 0 0 2.327 0 2.327 0s2.327 0 2.327 0c4.655 2.327 121.018 34.909 225.745 155.927 97.745 109.382 200.145 314.182 146.618 672.582zM512 6.982c-39.564 13.964-442.182 162.909-353.745 791.273 13.964-2.327 34.909-4.655 65.164-4.655 39.564 0 79.127 4.655 118.691 11.636 93.091 18.618 148.945 55.855 169.891 69.818 18.618-13.964 76.8-51.2 169.891-69.818 39.564-6.982 79.127-11.636 118.691-11.636 30.255 0 53.527 2.327 65.164 4.655 88.436-633.018-309.527-777.309-353.745-791.273zM653.964 528.291h-20.945v62.836c0 67.491-53.527 121.018-121.018 121.018s-121.018-53.527-121.018-121.018v-62.836h-23.273c-6.982 0-11.636-4.655-11.636-11.636v-228.073c0-6.982 4.655-11.636 11.636-11.636h286.255c6.982 0 11.636 4.655 11.636 11.636v228.073c0 6.982-4.655 11.636-11.636 11.636zM414.255 591.127c0 53.527 44.218 97.745 97.745 97.745s97.745-44.218 97.745-97.745v-62.836h-195.491v62.836zM642.327 300.218h-260.655v204.8h262.982v-204.8z" />
<glyph unicode="&#x36;" d="M781.964 593.455c2.327 0 2.327 0 4.655 0s6.982 2.327 9.309 2.327c23.273 23.273 55.855 76.8 20.945 118.691-48.873 58.182-32.582 104.727-30.255 107.055 2.327 4.655 0 11.636-4.655 13.964-6.982 2.327-13.964 2.327-16.291-2.327-2.327-2.327-69.818-79.127-53.527-144.291 13.964-69.818 67.491-95.418 69.818-95.418zM758.691 784.291c2.327-23.273 11.636-53.527 39.564-86.109 23.273-27.927-2.327-67.491-13.964-81.455-13.964 9.309-39.564 32.582-51.2 76.8-6.982 30.255 9.309 67.491 25.6 90.764zM898.327 288.582c-9.309 151.273-97.745 244.364-183.855 335.127-81.455 83.782-155.927 165.236-146.618 283.927 0 4.655-2.327 9.309-6.982 11.636s-9.309 2.327-13.964-2.327c-27.927-25.6-167.564-155.927-109.382-283.927 23.273-53.527 30.255-97.745 18.618-128-6.982-16.291-18.618-27.927-39.564-34.909-37.236-13.964-67.491-6.982-88.436 20.945-30.255 39.564-37.236 109.382-18.618 183.855 2.327 4.655 0 11.636-4.655 13.964s-11.636 2.327-13.964-2.327c-25.6-27.927-151.273-176.873-165.236-407.273-6.982-116.364 4.655-186.182 11.636-218.764 6.982-39.564 37.236-81.455 90.764-86.109h6.982c48.873-4.655 116.364-9.309 281.6-9.309s228.073 2.327 283.927 9.309c69.818 9.309 88.436 69.818 90.764 86.109v4.655c6.982 32.582 16.291 76.8 6.982 223.418zM868.073 72.146v-4.655c-2.327-13.964-18.618-60.509-72.145-69.818-46.545-6.982-102.4-9.309-281.6-9.309-162.909 0-230.4 4.655-279.273 9.309h-6.982c-46.545 4.655-65.164 44.218-69.818 67.491-6.982 34.909-18.618 100.073-9.309 214.109 11.636 172.218 86.109 297.891 130.327 358.4-6.982-65.164 2.327-123.345 30.255-158.255s69.818-46.545 114.036-27.927c25.6 9.309 41.891 25.6 51.2 46.545 13.964 34.909 9.309 83.782-18.618 146.618-41.891 93.091 41.891 195.491 83.782 237.382 2.327-114.036 76.8-190.836 153.6-272.291 83.782-86.109 167.564-176.873 176.873-321.164 13.964-144.291 4.655-188.509-2.327-216.436zM798.255 342.109c-2.327-2.327-181.527-130.327-207.127-144.291l-9.309-4.655c-20.945-13.964-46.545-30.255-74.473-30.255-30.255 0-53.527 16.291-74.473 30.255l-9.309 4.655c-23.273 13.964-204.8 144.291-207.127 144.291-4.655 4.655-11.636 2.327-16.291-2.327s-2.327-11.636 2.327-16.291c6.982-4.655 181.527-130.327 207.127-146.618l9.309-4.655c23.273-13.964 51.2-32.582 88.436-32.582 34.909 0 65.164 18.618 88.436 32.582l9.309 4.655c25.6 16.291 200.145 141.964 207.127 146.618 4.655 4.655 6.982 11.636 2.327 16.291-2.327 4.655-9.309 6.982-16.291 2.327z" />
<glyph unicode="&#x38;" d="M357.735 93.074l-0.126 134.41h134.908l99.686 99.725c106.872-34.931 228.656-11.256 313.721 73.519 120.162 120.247 120.162 315.258 0 435.422-120.121 120.162-315.174 120.204-435.377-0.085-85.066-85.066-108.533-206.889-73.145-314.052l-369.129-368.962-0.248-195.011 195.134 0.165v134.826h134.574zM669.007 599.396c-41.203 41.203-40.913 107.91 0.125 148.906 41.12 41.246 107.786 41.411 148.906 0 41.371-41.078 41.246-107.745 0.165-148.823-41.036-41.078-107.952-41.411-149.195-0.085z" />
<glyph unicode="&#x39;" d="M506.857 939.85c-280.082 0-507.117-227.080-507.117-507.162s227.035-507.117 507.117-507.117 507.162 227.035 507.162 507.117c0 280.082-227.080 507.162-507.162 507.162zM460.474 773.823h92.317v-458.32h-92.317v458.32zM553.239 91.553h-92.765v95.582h92.765v-95.582z" />
<glyph unicode="&#x61;" d="M765.673 400.291c-13.964 0-23.273-11.636-23.273-23.273v-397.964h-642.327v926.255h640v-97.745c0-30.255 48.873-30.255 48.873 0v121.018c0 13.964-11.636 23.273-23.273 23.273h-688.873c-13.964 0-23.273-11.636-23.273-23.273v-975.127c0-13.964 11.636-23.273 23.273-23.273h688.873c13.964 0 23.273 11.636 23.273 23.273v423.564c0 13.964-11.636 23.273-23.273 23.273zM963.491 726.109l-81.455 81.455c-9.309 9.309-25.6 9.309-34.909 0l-425.891-428.218c-2.327-2.327-4.655-4.655-4.655-6.982l-72.145-153.6c-9.309-18.618 11.636-41.891 32.582-32.582l148.945 67.491c2.327 2.327 4.655 2.327 6.982 4.655l435.2 432.873c4.655 9.309 4.655 25.6-4.655 34.909zM498.036 295.564l-83.782-39.564 41.891 90.764 409.6 409.6 48.873-48.873-416.582-411.927z" />
<glyph unicode="&#x62;" d="M961.164 400.291c-13.964 0-23.273-11.636-23.273-23.273v-351.418c0-27.927-18.618-46.545-46.545-46.545h-758.691c-27.927 0-46.545 18.618-46.545 46.545v351.418c0 30.255-48.873 30.255-48.873 0v-351.418c0-53.527 39.564-95.418 95.418-95.418h758.691c53.527 0 95.418 39.564 95.418 95.418v351.418c0 13.964-11.636 23.273-25.6 23.273zM495.709 223.418c9.309-9.309 25.6-9.309 34.909 0l246.691 246.691c20.945 20.945-11.636 55.855-34.909 34.909l-207.127-204.8v628.364c0 30.255-48.873 30.255-48.873 0v-630.691l-204.8 204.8c-20.945 20.945-55.855-11.636-34.909-34.909l249.018-244.364z" />
<glyph unicode="&#x63;" d="M884.364 679.564c0 4.655 0 6.982-2.327 11.636-2.327 2.327-2.327 4.655-4.655 6.982l-251.345 249.018c-4.655 4.655-9.309 6.982-16.291 6.982h-446.836c-13.964 0-23.273-11.636-23.273-23.273v-975.127c0-13.964 11.636-23.273 23.273-23.273h698.182c13.964 0 23.273 11.636 23.273 23.273v723.782c0-2.327 0 0 0 0zM633.018 872.727l169.891-169.891h-169.891v169.891zM186.182-20.945v926.255h400.291v-228.073c0-13.964 11.636-23.273 23.273-23.273h228.073v-674.909h-651.636z" />
<glyph unicode="&#x64;" d="M961.164 400.291c-13.964 0-23.273-11.636-23.273-23.273v-351.418c0-27.927-18.618-46.545-46.545-46.545h-758.691c-27.927 0-46.545 18.618-46.545 46.545v351.418c0 30.255-48.873 30.255-48.873 0v-351.418c0-53.527 39.564-95.418 95.418-95.418h758.691c53.527 0 95.418 39.564 95.418 95.418v351.418c0 13.964-11.636 23.273-25.6 23.273zM281.6 665.6l207.127 207.127v-630.691c0-30.255 48.873-30.255 48.873 0v630.691l204.8-204.8c20.945-20.945 55.855 11.636 34.909 34.909l-249.018 244.364c-9.309 9.309-25.6 9.309-34.909 0l-244.364-246.691c-20.945-20.945 11.636-55.855 32.582-34.909z" />
<glyph unicode="&#x65;" d="M940.218 919.273l-877.382-423.564c-18.618-9.309-18.618-37.236 2.327-44.218l349.091-141.964 165.236-332.8c9.309-18.618 37.236-16.291 44.218 2.327l351.418 909.964c4.655 9.309 0 18.618-6.982 25.6s-18.618 9.309-27.927 4.655zM849.455 821.527l-425.891-463.127-293.236 118.691 719.127 344.436zM598.109 46.546l-139.636 279.273 425.891 463.127-286.255-742.4z" />
<glyph unicode="&#x66;" d="M761.018 32.582c-4.655 0-9.309 2.327-13.964 4.655l-235.055 172.218-235.055-172.218c-18.618-13.964-44.218 4.655-37.236 27.927l90.764 276.945-237.382 172.218c-18.618 13.964-9.309 44.218 13.964 44.218h290.909l90.764 274.618c6.982 20.945 39.564 20.945 46.545 0l90.764-276.945h290.909c23.273 0 32.582-30.255 13.964-44.218l-235.055-172.218 90.764-276.945c2.327-13.964-9.309-30.255-25.6-30.255zM512 262.982c4.655 0 9.309-2.327 13.964-4.655l190.836-137.309-72.145 223.418c-2.327 9.309 0 20.945 9.309 27.927l190.836 137.309h-237.382c-9.309 0-18.618 6.982-23.273 16.291l-72.145 223.418-72.145-223.418c-2.327-9.309-11.636-16.291-23.273-16.291h-235.055l190.836-137.309c9.309-6.982 11.636-16.291 9.309-27.927l-72.145-223.418 190.836 137.309c2.327 2.327 6.982 4.655 11.636 4.655z" />
<glyph unicode="&#x67;" d="M916.945 556.218h-293.236l-88.436 276.945c-6.982 20.945-39.564 20.945-46.545 0l-90.764-276.945h-290.909c-23.273 0-32.582-30.255-13.964-44.218l235.055-172.218-90.764-276.945c-6.982-20.945 18.618-39.564 37.236-27.927l237.382 174.545 235.055-172.218c4.655-2.327 9.309-4.655 13.964-4.655 16.291 0 27.927 16.291 23.273 32.582l-90.764 276.945 237.382 172.218c18.618 11.636 9.309 41.891-13.964 41.891z" />
<glyph unicode="&#x68;" d="M512-6.982c249.018 0 449.164 200.145 449.164 449.164s-200.145 449.164-449.164 449.164-449.164-200.145-449.164-449.164c0-249.018 200.145-449.164 449.164-449.164zM914.618 442.182c0-102.4-39.564-195.491-102.4-267.636l-567.855 567.855c72.145 62.836 165.236 102.4 267.636 102.4 221.091 0 402.618-181.527 402.618-402.618zM211.782 709.818l567.855-567.855c-72.145-62.836-165.236-102.4-267.636-102.4-221.091 0-402.618 181.527-402.618 402.618 0 102.4 39.564 195.491 102.4 267.636z" />
<glyph unicode="&#x6a;" d="M868.073 714.473h-186.182v141.964c0 13.964-11.636 23.273-23.273 23.273h-286.255c-13.964 0-23.273-11.636-23.273-23.273v-141.964h-193.164c-30.255 0-30.255-48.873 0-48.873h60.509v-567.855c0-53.527 39.564-95.418 95.418-95.418h407.273c53.527 0 95.418 39.564 95.418 95.418v570.182h55.855c30.255 0 30.255 46.545-2.327 46.545zM395.636 833.164h237.382v-118.691h-237.382v118.691zM763.345 97.746c0-27.927-18.618-46.545-46.545-46.545h-404.945c-27.927 0-46.545 18.618-46.545 46.545v570.182h500.364v-570.182z" />
<glyph unicode="&#x6b;" d="M940.218-4.654h-856.436c-30.255 0-23.273 39.564-23.273 60.509 2.327 23.273 6.982 48.873 11.636 72.145 11.636 39.564 30.255 76.8 55.855 109.382 41.891 53.527 97.745 93.091 160.582 121.018 13.964 6.982 25.6 11.636 39.564 16.291 16.291 6.982 37.236 11.636 51.2 20.945 30.255 30.255-4.655 62.836-23.273 88.436-25.6 34.909-46.545 74.473-55.855 118.691-16.291 81.455 11.636 176.873 74.473 235.055 65.164 60.509 167.564 69.818 244.364 20.945 72.145-44.218 109.382-132.655 109.382-216.436 0-53.527-18.618-102.4-48.873-146.618-13.964-20.945-30.255-39.564-39.564-60.509-9.309-16.291-6.982-27.927 6.982-41.891 13.964-9.309 30.255-11.636 44.218-18.618 11.636-4.655 23.273-9.309 34.909-13.964 27.927-11.636 55.855-25.6 81.455-44.218 62.836-41.891 114.036-102.4 137.309-174.545 6.982-23.273 13.964-48.873 16.291-74.473 2.327-20.945 11.636-72.145-20.945-72.145zM109.382 44.218h805.236c-4.655 72.145-32.582 141.964-83.782 193.164-39.564 39.564-88.436 65.164-139.636 86.109-25.6 9.309-55.855 16.291-76.8 32.582-34.909 27.927-34.909 72.145-13.964 109.382 18.618 32.582 44.218 60.509 60.509 95.418 18.618 39.564 23.273 81.455 16.291 123.345-11.636 72.145-62.836 141.964-139.636 153.6-79.127 11.636-146.618-32.582-174.545-104.727-13.964-34.909-18.618-76.8-13.964-114.036 6.982-41.891 25.6-76.8 51.2-109.382 20.945-27.927 48.873-60.509 44.218-97.745-4.655-44.218-41.891-62.836-79.127-74.473-111.709-41.891-214.109-107.055-244.364-230.4-6.982-20.945-9.309-41.891-11.636-62.836z" />
<glyph unicode="&#x6c;" d="M591.127-25.6h-160.582c-13.964 0-23.273 11.636-23.273 23.273v90.764c-25.6 6.982-48.873 18.618-72.145 30.255l-65.164-65.164c-4.655-4.655-11.636-6.982-16.291-6.982v0c-6.982 0-11.636 2.327-16.291 6.982l-114.036 114.036c-9.309 9.309-9.309 25.6 0 34.909l67.491 67.491c-11.636 23.273-20.945 46.545-27.927 69.818h-95.418c-13.964 0-23.273 11.636-23.273 23.273v160.582c0 13.964 11.636 23.273 23.273 23.273h102.4c6.982 23.273 16.291 44.218 27.927 62.836l-72.145 72.145c-9.309 9.309-9.309 25.6 0 34.909l114.036 114.036c9.309 9.309 25.6 9.309 34.909 0l74.473-74.473c18.618 9.309 39.564 18.618 60.509 25.6v104.727c0 13.964 11.636 23.273 23.273 23.273h160.582c13.964 0 23.273-11.636 23.273-23.273v-107.055c20.945-6.982 41.891-13.964 60.509-25.6l74.473 74.473c6.982 6.982 11.636 9.309 18.618 9.309v0c6.982 0 11.636-2.327 16.291-6.982l114.036-114.036c9.309-9.309 9.309-25.6 0-34.909l-72.145-72.145c11.636-20.945 20.945-41.891 27.927-62.836h102.4c13.964 0 23.273-11.636 23.273-23.273v-160.582c0-13.964-11.636-23.273-23.273-23.273h-97.745c-6.982-23.273-16.291-46.545-27.927-69.818l67.491-67.491c9.309-9.309 9.309-25.6 0-34.909l-114.036-114.036c-4.655-4.655-11.636-6.982-16.291-6.982-6.982 0-11.636 2.327-16.291 6.982l-65.164 65.164c-23.273-11.636-46.545-23.273-72.145-30.255v-90.764c0-13.964-11.636-23.273-25.6-23.273zM456.145 20.946h111.709v86.109c0 11.636 6.982 18.618 18.618 23.273 13.964 4.655 30.255 9.309 44.218 13.964s27.927 11.636 39.564 20.945c11.636 6.982 25.6 11.636 37.236 0l60.509-60.509 79.127 79.127-62.836 62.836c-11.636 11.636-6.982 23.273 0 34.909 6.982 13.964 13.964 27.927 18.618 41.891 6.982 18.618 9.309 62.836 37.236 62.836h93.091v111.709h-95.418c-25.6 0-30.255 41.891-37.236 60.509-4.655 13.964-11.636 25.6-20.945 39.564-6.982 11.636-9.309 23.273 0 34.909l69.818 69.818-79.127 79.127-72.145-74.473c-18.618-18.618-53.527 9.309-72.145 16.291s-58.182 9.309-58.182 37.236v102.4h-111.709v-102.4c0-27.927-39.564-27.927-58.182-37.236-18.618-6.982-51.2-37.236-72.145-16.291l-72.145 72.145-79.127-79.127 69.818-69.818c11.636-11.636 6.982-23.273 0-34.909s-13.964-25.6-20.945-39.564c-6.982-18.618-11.636-58.182-37.236-58.182h-95.418v-111.709h90.764c27.927 0 30.255-44.218 37.236-62.836 4.655-13.964 11.636-27.927 18.618-41.891 6.982-11.636 9.309-23.273 0-34.909l-62.836-62.836 79.127-79.127 60.509 60.509c11.636 11.636 23.273 6.982 34.909 0 13.964-6.982 27.927-16.291 41.891-20.945s27.927-9.309 41.891-13.964c11.636-4.655 20.945-11.636 20.945-23.273v-86.109zM512 232.727c-83.782 0-160.582 53.527-188.509 132.655s-4.655 169.891 60.509 223.418c65.164 53.527 158.255 60.509 230.4 18.618 72.145-44.218 111.709-130.327 95.418-211.782-18.618-93.091-102.4-162.909-197.818-162.909zM512 586.473c-62.836 0-123.345-41.891-144.291-102.4s-2.327-128 46.545-169.891c48.873-39.564 121.018-46.545 174.545-13.964 55.855 32.582 83.782 97.745 72.145 162.909-13.964 72.145-76.8 123.345-148.945 123.345z" />
<glyph unicode="&#x6d;" d="M849.455 709.818c-27.927 30.255-58.182 58.182-93.091 79.127-16.291 9.309-34.909 25.6-53.527 30.255-20.945 4.655-37.236-16.291-27.927-34.909 9.309-16.291 34.909-23.273 48.873-32.582 16.291-11.636 32.582-23.273 48.873-34.909 30.255-25.6 55.855-55.855 79.127-90.764 83.782-134.982 81.455-309.527-6.982-442.182-86.109-128-239.709-195.491-390.982-174.545-148.945 20.945-276.945 128-325.818 272.291-51.2 153.6-2.327 323.491 116.364 430.545 16.291 13.964 32.582 25.6 48.873 37.236 9.309 6.982 18.618 11.636 27.927 16.291 6.982 4.655 16.291 6.982 20.945 13.964 11.636 16.291-2.327 39.564-23.273 37.236-18.618-2.327-39.564-18.618-55.855-30.255-67.491-44.218-123.345-104.727-158.255-176.873-72.145-141.964-62.836-314.182 23.273-446.836 81.455-128 228.073-207.127 379.345-207.127 37.236 0 76.8 4.655 114.036 13.964 144.291 37.236 265.309 148.945 311.855 290.909 58.182 155.927 23.273 328.145-83.782 449.164zM512 425.891c13.964 0 23.273 11.636 23.273 23.273v453.818c0 30.255-48.873 30.255-48.873 0v-451.491c2.327-13.964 11.636-25.6 25.6-25.6z" />
<glyph unicode="&#x6e;" d="M486.4 34.909c-4.655 0-13.964 0-18.618 4.655-9.309 9.309-9.309 23.273 0 32.582l381.673 381.673c79.127 79.127 79.127 204.8 0 283.927s-204.8 79.127-283.927 0l-414.255-414.255c-51.2-51.2-51.2-130.327 0-176.873 51.2-51.2 130.327-51.2 176.873 0l418.909 414.255c9.309 9.309 13.964 23.273 13.964 37.236s-4.655 27.927-13.964 37.236c-18.618 18.618-51.2 18.618-74.473 0l-381.673-381.673c-9.309-9.309-23.273-9.309-32.582 0s-9.309 23.273 0 32.582l381.673 381.673c37.236 37.236 102.4 37.236 139.636 0 18.618-18.618 27.927-41.891 27.927-69.818s-9.309-51.2-27.927-69.818l-414.255-414.255c-65.164-65.164-176.873-65.164-246.691 0-65.164 65.164-65.164 176.873 0 246.691l414.255 414.255c97.745 97.745 251.345 97.745 349.091 0s97.745-251.345 0-349.091l-381.673-381.673c0-9.309-4.655-9.309-13.964-9.309z" />
<glyph unicode="&#x6f;" d="M816.873 747.055c-86.109 86.109-225.745 109.382-332.8 51.2-100.073-51.2-160.582-160.582-151.273-272.291 4.655-60.509 27.927-118.691 67.491-165.236l-269.964-265.309c-20.945-20.945 11.636-55.855 34.909-34.909l267.636 267.636c88.436-74.473 218.764-88.436 321.164-32.582s160.582 169.891 146.618 283.927c-9.309 62.836-37.236 123.345-83.782 167.564-53.527 53.527 53.527-53.527 0 0zM784.291 377.018c-72.145-72.145-186.182-90.764-276.945-44.218-83.782 41.891-132.655 132.655-128 225.745 6.982 95.418 69.818 179.2 160.582 209.455 95.418 34.909 204.8 0 267.636-81.455 67.491-93.091 58.182-225.745-23.273-309.527-46.545-44.218 44.218 46.545 0 0z" />
<glyph unicode="&#x70;" d="M733.091 467.782v128c0 123.345-100.073 221.091-221.091 221.091s-221.091-100.073-221.091-221.091v-128h-41.891v-402.618h523.636v402.618h-39.564zM349.091 467.782v128c0 88.436 76.8 162.909 162.909 162.909s162.909-76.8 162.909-162.909v-128h-325.818z" />
<glyph unicode="&#x71;" d="M349.091 407.273v251.345c0 88.436 76.8 162.909 162.909 162.909s162.909-76.8 162.909-162.909v-116.364h58.182v116.364c0 123.345-100.073 221.091-221.091 221.091s-221.091-100.073-221.091-221.091v-251.345h-41.891v-402.618h523.636v402.618h-423.564z" />
<glyph unicode="&#x72;" d="M765.673 442.182c0 107.055-67.491 202.473-167.564 239.709-100.073 34.909-214.109 4.655-281.6-76.8s-76.8-202.473-20.945-293.236c53.527-90.764 162.909-137.309 265.309-116.364 116.364 20.945 204.8 125.673 204.8 246.691z" />
<glyph unicode="&#x73;" d="M546.909 442.182l337.455 339.782c9.309 9.309 9.309 23.273 0 32.582s-25.6 9.309-34.909 0l-337.455-339.782-339.782 339.782c-9.309 9.309-23.273 9.309-32.582 0s-9.309-23.273 0-32.582l337.455-339.782-337.455-339.782c-9.309-9.309-9.309-23.273 0-32.582 4.655-4.655 11.636-6.982 16.291-6.982s11.636 2.327 16.291 6.982l339.782 337.455 339.782-337.455c4.655-4.655 11.636-6.982 16.291-6.982s11.636 2.327 16.291 6.982c9.309 9.309 9.309 25.6 0 34.909l-337.455 337.455z" />
<glyph unicode="&#x76;" d="M512 276.946c-4.655 0-11.636 2.327-16.291 4.655l-332.8 283.927c-23.273 20.945 6.982 55.855 30.255 37.236l318.836-269.964 316.509 267.636c23.273 20.945 53.527-16.291 30.255-37.236l-330.473-279.273c-4.655-4.655-11.636-6.982-16.291-6.982z" />
<glyph unicode="&#x79;" d="M640 768c-20.945 20.945-55.855-11.636-34.909-34.909l246.691-246.691h-744.727c-30.255 0-30.255-48.873 0-48.873h747.055l-246.691-244.364c-20.945-20.945 11.636-55.855 34.909-34.909l288.582 288.582c0 0 0 0 2.327 2.327 6.982 9.309 6.982 23.273-2.327 32.582l-290.909 286.255z" />
<glyph unicode="&#x7a;" d="M909.964 400.291c-32.582 118.691-141.964 202.473-265.309 202.473h-456.145l183.855 183.855c20.945 20.945-11.636 55.855-34.909 34.909l-225.745-225.745c-9.309-9.309-9.309-25.6 0-34.909l225.745-225.745c20.945-20.945 55.855 11.636 34.909 34.909l-183.855 183.855h456.145c109.382 0 204.8-81.455 223.418-190.836 16.291-109.382-48.873-216.436-153.6-249.018-11.636-4.655-25.6-6.982-37.236-9.309-13.964-2.327-32.582 2.327-41.891-4.655-11.636-6.982-16.291-20.945-9.309-32.582 9.309-13.964 25.6-11.636 39.564-11.636 53.527 4.655 104.727 23.273 148.945 55.855 83.782 67.491 123.345 183.855 95.418 288.582z" />
<glyph unicode="&#xdf;" d="M393.309-34.909c-6.982 0-11.636 2.327-16.291 6.982l-335.127 335.127c-9.309 9.309-9.309 25.6 0 34.909l572.509 570.182c4.655 4.655 11.636 6.982 16.291 6.982h335.127c13.964 0 23.273-11.636 23.273-23.273v-332.8c0-6.982 0-13.964-6.982-20.945l-572.509-570.182c-4.655-4.655-9.309-6.982-16.291-6.982zM90.764 323.491l302.545-302.545 546.909 546.909v302.545h-300.218l-549.236-546.909zM728.436 535.273c-51.2 0-97.745 32.582-114.036 79.127-18.618 48.873-2.327 102.4 34.909 134.982 39.564 37.236 97.745 41.891 141.964 13.964 44.218-25.6 67.491-79.127 58.182-128-11.636-55.855-62.836-100.073-121.018-100.073zM728.436 733.091c-39.564 0-74.473-34.909-74.473-74.473s34.909-74.473 74.473-74.473c39.564 0 74.473 34.909 74.473 74.473 0 41.891-32.582 74.473-74.473 74.473z" />
<glyph unicode="&#xe4;" d="M716.8 602.764h-411.927l183.855 183.855c20.945 20.945-11.636 55.855-34.909 34.909l-225.745-225.745c-9.309-9.309-9.309-25.6 2.327-34.909l223.418-223.418c20.945-20.945 55.855 11.636 34.909 34.909l-183.855 183.855h411.927c109.382 0 204.8-81.455 223.418-190.836 16.291-109.382-48.873-216.436-153.6-249.018-11.636-4.655-25.6-6.982-37.236-9.309-13.964-2.327-32.582 2.327-41.891-4.655-11.636-6.982-16.291-20.945-9.309-32.582 9.309-13.964 25.6-11.636 39.564-11.636 53.527 2.327 104.727 23.273 146.618 55.855 86.109 65.164 128 179.2 100.073 286.255-34.909 116.364-144.291 202.473-267.636 202.473zM93.091 579.491l207.127 207.127c20.945 20.945-11.636 55.855-34.909 34.909l-225.745-225.745c-9.309-9.309-9.309-25.6 0-34.909l225.745-225.745c20.945-20.945 55.855 11.636 34.909 34.909l-207.127 209.455z" />
<glyph unicode="&#xf6;" d="M528.291 912.291c-9.309 9.309-25.6 9.309-34.909 0l-325.818-325.818c-20.945-20.945 11.636-55.855 34.909-34.909l286.255 286.255v-849.455c0-30.255 48.873-30.255 48.873 0v849.455l283.927-283.927c20.945-20.945 55.855 11.636 34.909 34.909l-328.145 323.491z" />
<glyph unicode="&#xfc;" d="M819.2 330.473l-283.927-283.927v849.455c0 30.255-48.873 30.255-48.873 0v-849.455l-281.6 283.927c-20.945 20.945-55.855-11.636-34.909-34.909l325.818-325.818c6.982-6.982 20.945-9.309 30.255-2.327v0c2.327 0 2.327 2.327 4.655 2.327l325.818 325.818c9.309 9.309 9.309 25.6 0 34.909s-27.927 9.309-37.236 0z" />
<glyph unicode="&#xe600;" d="M517.78 289.525c-11.995 0-21.676-9.682-21.676-21.676v-152.306c0-11.995 9.729-21.676 21.676-21.676s21.724 9.682 21.724 21.676v152.306c0 11.995-9.729 21.676-21.724 21.676zM818.252 474.683v171.043c0 165.696-134.726 300.471-300.423 300.471s-300.519-134.774-300.519-300.471v-171.043h-53.948v-562.263h708.933v562.263h-54.045zM517.828 39.97c-84.823 0-153.606 68.783-153.606 153.56s68.783 153.56 153.606 153.56 153.56-68.735 153.56-153.56-68.735-153.56-153.56-153.56zM720.134 474.683h-404.706v171.043c0 111.605 90.796 202.402 202.402 202.402s202.304-90.796 202.304-202.402v-171.043z" />
<glyph unicode="&#xe601;" d="M558.545 367.709c6.982-6.982 20.945-13.964 44.218-20.945 9.309-4.655 23.273-9.309 34.909-13.964s25.6 0 30.255 11.636c4.655 11.636 0 25.6-11.636 30.255-13.964 4.655-25.6 11.636-37.236 13.964-11.636 4.655-25.6 9.309-27.927 11.636-16.291 16.291-13.964 23.273 16.291 65.164 25.6 37.236 60.509 86.109 60.509 160.582 0 107.055-74.473 216.436-197.818 216.436s-197.818-111.709-197.818-216.436c0-74.473 34.909-125.673 60.509-160.582 30.255-41.891 32.582-48.873 16.291-65.164-2.327-2.327-16.291-6.982-27.927-11.636-79.127-30.255-262.982-100.073-262.982-328.145 0-13.964 11.636-23.273 23.273-23.273h530.618c13.964 0 23.273 11.636 23.273 23.273s-11.636 23.273-23.273 23.273h-502.691c11.636 176.873 158.255 232.727 230.4 260.655 23.273 9.309 34.909 13.964 44.218 20.945 46.545 46.545 16.291 90.764-9.309 128-25.6 34.909-53.527 72.145-53.527 132.655 0 83.782 55.855 169.891 151.273 169.891 93.091 0 148.945-86.109 148.945-169.891 0-60.509-27.927-97.745-53.527-132.655-27.927-34.909-58.182-76.8-9.309-125.673zM937.891 214.109h-102.4v102.4c0 13.964-11.636 23.273-23.273 23.273s-23.273-11.636-23.273-23.273v-102.4h-102.4c-13.964 0-23.273-11.636-23.273-23.273 0-13.964 11.636-23.273 23.273-23.273h102.4v-102.4c0-13.964 11.636-23.273 23.273-23.273s23.273 11.636 23.273 23.273v102.4h102.4c13.964 0 23.273 11.636 23.273 23.273s-9.309 23.273-23.273 23.273z" />
<glyph unicode="&#xe602;" d="M298.667 314.182v-85.333h426.667v85.333h-426.667zM128 58.182h768v85.333h-768v-85.333zM128 399.515h768v85.333h-768v-85.333zM298.667 655.515v-85.333h426.667v85.333h-426.667zM128 826.182v-85.333h768v85.333h-768z" />
<glyph unicode="&#xe603;" d="M128 58.182h768v85.333h-768v-85.333zM128 228.849h768v85.333h-768v-85.333zM128 399.515h768v85.333h-768v-85.333zM128 570.182h768v85.333h-768v-85.333zM128 826.182v-85.333h768v85.333h-768z" />
<glyph unicode="&#xe604;" d="M640 314.182h-512v-85.333h512v85.333zM640 655.515h-512v-85.333h512v85.333zM128 399.515h768v85.333h-768v-85.333zM128 58.182h768v85.333h-768v-85.333zM128 826.182v-85.333h768v85.333h-768z" />
<glyph unicode="&#xe605;" d="M128 58.182h768v85.333h-768v-85.333zM384 228.849h512v85.333h-512v-85.333zM128 399.515h768v85.333h-768v-85.333zM384 570.182h512v85.333h-512v-85.333zM128 826.182v-85.333h768v85.333h-768z" />
<glyph unicode="&#xe606;" d="M665.6 493.809c41.173 28.8 70.4 75.307 70.4 119.040 0 96.213-74.453 170.667-170.667 170.667h-266.667v-597.333h300.373c89.387 0 158.293 72.533 158.293 161.707 0 64.853-36.907 120.107-91.733 145.92zM426.667 676.849h128c35.413 0 64-28.587 64-64s-28.587-64-64-64h-128v128zM576 292.849h-149.333v128h149.333c35.413 0 64-28.587 64-64s-28.587-64-64-64z" />
<glyph unicode="&#xe607;" d="M300.218 437.527h414.255c13.964 0 23.273 9.309 23.273 23.273v97.745c4.655 13.964-9.309 23.273-18.618 23.273h-418.909c-9.309 0-23.273-9.309-23.273-23.273v-97.745c0-13.964 13.964-23.273 23.273-23.273zM323.491 535.273h372.364v-51.2h-372.364v51.2zM956.509 907.637h-893.673c-13.964 0-23.273-9.309-23.273-23.273v-195.491c0-13.964 9.309-23.273 23.273-23.273h41.891v-665.6c0-13.964 9.309-23.273 23.273-23.273h768c13.964 0 23.273 9.309 23.273 23.273v665.6h41.891c13.964 0 23.273 9.309 23.273 23.273v195.491c-4.655 13.964-13.964 23.273-27.927 23.273zM868.073 23.273h-716.8v642.327h721.455v-642.327h-4.655zM933.236 712.146h-847.127v148.945h851.782v-148.945h-4.655z" />
<glyph unicode="&#xe608;" d="M865.745 332.8c-4.655 2.327-11.636 6.982-13.964 6.982-9.309 9.309-11.636 11.636 11.636 46.545 20.945 27.927 48.873 67.491 48.873 128 0 86.109-60.509 174.545-160.582 174.545s-158.255-88.436-158.255-174.545c0-60.509 27.927-100.073 48.873-128 23.273-34.909 23.273-34.909 13.964-44.218-4.655-2.327-23.273-11.636-37.236-18.618l-4.655-2.327c-41.891 37.236-88.436 58.182-116.364 72.145-9.309 4.655-18.618 9.309-20.945 9.309-16.291 16.291-13.964 23.273 13.964 65.164 25.6 34.909 60.509 83.782 60.509 158.255 0 104.727-72.145 214.109-193.164 214.109-123.345-2.327-195.491-111.709-195.491-216.436 0-74.473 34.909-123.345 60.509-158.255 30.255-41.891 30.255-48.873 16.291-65.164-2.327-2.327-13.964-6.982-20.945-11.636-67.491-25.6-218.764-93.091-218.764-318.836 0-13.964 9.309-23.273 23.273-23.273h977.455c13.964 0 23.273 9.309 23.273 23.273 0 183.855-111.709 239.709-158.255 262.982zM46.545 93.091c9.309 176.873 130.327 230.4 188.509 256 16.291 6.982 27.927 11.636 34.909 20.945 46.545 46.545 16.291 88.436-9.309 125.673-23.273 32.582-51.2 72.145-51.2 130.327 0 81.455 55.855 165.236 148.945 165.236 90.764 0 146.618-83.782 146.618-167.564 0-58.182-27.927-97.745-51.2-130.327-25.6-37.236-55.855-79.127-9.309-125.673 6.982-6.982 18.618-11.636 34.909-18.618 58.182-25.6 179.2-79.127 188.509-256h-621.382zM712.145 93.091c-4.655 86.109-30.255 146.618-65.164 190.836 25.6 11.636 34.909 16.291 41.891 23.273 39.564 39.564 13.964 76.8-6.982 107.055-18.618 25.6-39.564 55.855-39.564 102.4 0 62.836 41.891 128 114.036 128 69.818 0 111.709-65.164 111.709-128 0-46.545-20.945-74.473-39.564-102.4-20.945-30.255-46.545-65.164-6.982-107.055 6.982-6.982 13.964-9.309 25.6-16.291 41.891-20.945 123.345-60.509 132.655-197.818h-267.636z" />
<glyph unicode="&#xe609;" d="M700.509 409.6h-202.473c-13.964 0-23.273 9.309-23.273 23.273v253.673c0 13.964 9.309 23.273 23.273 23.273s23.273-9.309 23.273-23.273v-230.4h179.2c13.964 0 23.273-9.309 23.273-23.273s-11.636-23.273-23.273-23.273zM512 891.346c-249.018 0-449.164-200.145-449.164-449.164s200.145-449.164 449.164-449.164 449.164 200.145 449.164 449.164-200.145 449.164-449.164 449.164zM512 39.564c-221.091 0-402.618 181.527-402.618 402.618s181.527 402.618 402.618 402.618 402.618-181.527 402.618-402.618-181.527-402.618-402.618-402.618z" />
<glyph unicode="&#xe60a;" d="M847.127 754.037h-179.2v132.655c0 13.964-11.636 23.273-23.273 23.273h-267.636c-13.964 0-23.273-11.636-23.273-23.273v-132.655h-176.873c-13.964 0-23.273-11.636-23.273-23.273s11.636-23.273 23.273-23.273h53.527v-218.764c0-13.964 11.636-23.273 23.273-23.273 0 0 0 0 0 0 6.982 0 11.636 2.327 16.291 6.982l111.709 111.709 111.709-109.382c9.309-9.309 25.6-9.309 34.909 0l111.709 109.382 111.709-109.382c4.655-4.655 13.964-6.982 20.945-6.982 6.982 2.327 13.964 6.982 18.618 13.964 2.327 2.327 2.327 6.982 2.327 11.636v216.436h53.527c13.964 0 23.273 11.636 23.273 23.273s-9.309 20.945-23.273 20.945zM400.291 863.418h221.091v-109.382h-221.091v109.382zM744.727 546.909l-86.109 86.109c-9.309 9.309-25.6 9.309-34.909 0l-111.709-109.382-111.709 109.382c-4.655 4.655-11.636 6.982-16.291 6.982-6.982 0-11.636-2.327-16.291-6.982l-88.436-86.109v158.255h465.455v-158.255zM358.4 225.746c6.982 0 11.636 2.327 16.291 6.982l102.4 102.4c4.655 4.655 6.982 11.636 6.982 16.291s-2.327 11.636-6.982 16.291l-102.4 102.4c-9.309 9.309-25.6 9.309-34.909 0l-102.4-102.4c-9.309-9.309-9.309-25.6 0-34.909l102.4-102.4c4.655-2.327 11.636-4.655 18.618-4.655zM358.4 421.237l69.818-69.818-69.818-69.818-69.818 69.818 69.818 69.818zM630.691 267.637c4.655-4.655 11.636-6.982 16.291-6.982s11.636 2.327 16.291 6.982l102.4 102.4c4.655 4.655 6.982 11.636 6.982 16.291s-2.327 11.636-6.982 16.291l-102.4 102.4c-9.309 9.309-25.6 9.309-34.909 0l-102.4-102.4c-4.655-4.655-6.982-11.636-6.982-16.291s2.327-11.636 6.982-16.291l104.727-102.4zM646.982 456.146l69.818-69.818-69.818-69.818-69.818 69.818 69.818 69.818zM626.036 202.473l-81.455 81.455c-9.309 9.309-25.6 9.309-34.909 0l-81.455-81.455c-4.655-4.655-9.309-9.309-9.309-16.291s2.327-11.636 6.982-16.291l81.455-81.455c4.655-4.655 11.636-6.982 16.291-6.982s11.636 2.327 16.291 6.982l81.455 81.455c13.964 9.309 13.964 23.273 4.655 32.582zM525.964 137.309l-48.873 48.873 48.873 48.873 48.873-48.873-48.873-48.873zM747.055 155.927c-9.309 9.309-25.6 9.309-34.909 0l-60.509-60.509c-9.309-9.309-9.309-25.6 0-34.909l60.509-60.509c4.655-4.655 11.636-6.982 16.291-6.982s11.636 2.327 16.291 6.982l60.509 60.509c9.309 9.309 9.309 25.6 0 34.909l-58.182 60.509zM730.764 53.527l-25.6 25.6 25.6 25.6 25.6-25.6-25.6-25.6zM377.018 137.309c-9.309 9.309-25.6 9.309-34.909 0l-60.509-60.509c-4.655-4.655-6.982-11.636-6.982-16.291s2.327-11.636 6.982-16.291l60.509-60.509c4.655-4.655 11.636-6.982 16.291-6.982s11.636 2.327 16.291 6.982l60.509 60.509c9.309 9.309 9.309 25.6 0 34.909l-58.182 58.182zM360.727 34.909l-25.6 25.6 25.6 25.6 25.6-25.6-25.6-25.6z" />
<glyph unicode="&#xe60b;" d="M512 200.146c0 0 0 0 0 0-9.309 0-9.309 4.655-13.964 4.655 0 0 0 0 0 0l-223.418 214.109c-9.309 9.309-9.309 23.273 0 32.582s23.273 9.309 32.582 0l181.527-176.873v288.582c0 153.6 121.018 274.618 274.618 274.618h130.327c13.964 0 23.273-9.309 23.273-23.273s-9.309-23.273-23.273-23.273h-130.327c-125.673 0-228.073-102.4-228.073-228.073v-283.927l181.527 176.873c9.309 9.309 23.273 9.309 32.582 0 4.655-4.655 4.655-9.309 4.655-13.964s-4.655-13.964-9.309-18.618l-218.764-214.109c0 0 0 0 0 0 0-4.655-9.309-9.309-13.964-9.309 0 0 0 0 0 0v0c0 0 0 0 0 0zM833.164 46.546h-642.327c-46.545 0-88.436 37.236-88.436 88.436v297.891c0 13.964 9.309 23.273 23.273 23.273s23.273-9.309 23.273-23.273v-297.891c0-23.273 18.618-41.891 41.891-41.891h637.673c23.273 0 41.891 18.618 41.891 41.891v297.891c0 13.964 9.309 23.273 23.273 23.273s23.273-9.309 23.273-23.273v-297.891c0-51.2-37.236-88.436-83.782-88.436z" />
<glyph unicode="&#xe60c;" d="M660.945 691.2v93.091c0 83.782-67.491 148.945-148.945 148.945s-148.945-67.491-148.945-148.945v-93.091h-27.927v-279.273h351.418v279.273h-25.6zM630.691 691.2h-237.382v93.091c0 65.164 53.527 118.691 118.691 118.691s118.691-53.527 118.691-118.691v-93.091zM500.364 25.6c2.327-2.327 2.327-2.327 4.655-2.327s4.655-2.327 6.982-2.327 4.655 0 6.982 2.327c2.327 0 4.655 2.327 4.655 2.327l114.036 114.036c6.982 6.982 6.982 16.291 0 20.945-6.982 6.982-16.291 6.982-20.945 0l-88.436-88.436v230.4c0 9.309-6.982 16.291-16.291 16.291s-16.291-6.982-16.291-16.291v-228.073l-86.109 88.436c-6.982 6.982-16.291 6.982-20.945 0-6.982-6.982-6.982-16.291 0-20.945l111.709-116.364zM758.691-23.273h-493.382c-9.309 0-16.291-6.982-16.291-16.291s6.982-16.291 16.291-16.291h493.382c9.309 0 16.291 6.982 16.291 16.291s-6.982 16.291-16.291 16.291z" />
<glyph unicode="&#xe60d;" d="M928.582 765.673l-595.782-74.473c-11.636-2.327-18.618-18.618-9.309-27.927l176.873-148.945 2.327-13.964c-25.6-23.273-58.182-32.582-76.8-37.236-44.218 41.891-109.382 39.564-151.273 0l-46.545-44.218-9.309 9.309-141.964-134.982 167.564-176.873 141.964 134.982-9.309 9.309 48.873 44.218c34.909 34.909 41.891 88.436 20.945 128 16.291 4.655 39.564 13.964 60.509 30.255l27.927-179.2c0-6.982 6.982-11.636 11.636-11.636 6.982-2.327 11.636 0 16.291 6.982l381.673 465.455c2.327 0 2.327 2.327 2.327 6.982 0 6.982-9.309 16.291-18.618 13.964zM400.291 330.473l-46.545-44.218-104.727 111.709 46.545 44.218c30.255 27.927 76.8 27.927 109.382-2.327 27.927-30.255 27.927-81.455-4.655-109.382zM372.364 663.273l481.745 62.836-335.127-186.182-146.618 123.345zM558.545 321.164l-27.927 190.836 335.127 186.182-307.2-377.018z" />
<glyph unicode="&#xe60e;" d="M658.618 691.2v93.091c0 83.782-67.491 148.945-148.945 148.945s-148.945-67.491-148.945-148.945v-93.091h-27.927v-279.273h351.418v279.273h-25.6zM628.364 691.2h-235.055v93.091c0 65.164 53.527 118.691 118.691 118.691s116.364-53.527 116.364-118.691v-93.091zM407.273 176.873l88.436 88.436v-228.073c0-9.309 6.982-16.291 16.291-16.291s16.291 6.982 16.291 16.291v228.073l88.436-88.436c2.327-2.327 6.982-4.655 11.636-4.655s6.982 2.327 11.636 4.655c6.982 6.982 6.982 16.291 0 20.945l-114.036 114.036c-2.327 2.327-2.327 2.327-4.655 2.327-4.655 2.327-6.982 2.327-11.636 0-2.327 0-4.655-2.327-4.655-2.327l-114.036-114.036c-6.982-6.982-6.982-16.291 0-20.945 0-4.655 11.636-4.655 16.291 0zM758.691-23.273h-493.382c-9.309 0-16.291-6.982-16.291-16.291s6.982-16.291 16.291-16.291h493.382c9.309 0 16.291 6.982 16.291 16.291s-6.982 16.291-16.291 16.291z" />
<glyph unicode="&#xe60f;" d="M512 891.346c-249.018 0-449.164-200.145-449.164-449.164s200.145-449.164 449.164-449.164 449.164 200.145 449.164 449.164-200.145 449.164-449.164 449.164zM512 39.564c-221.091 0-402.618 181.527-402.618 402.618s181.527 402.618 402.618 402.618 402.618-181.527 402.618-402.618-181.527-402.618-402.618-402.618zM751.709 463.127h-216.436v216.436c0 13.964-9.309 23.273-23.273 23.273s-23.273-9.309-23.273-23.273v-216.436h-216.436c-13.964 0-23.273-9.309-23.273-23.273s9.309-23.273 23.273-23.273h216.436v-216.436c0-13.964 9.309-23.273 23.273-23.273s23.273 9.309 23.273 23.273v216.436h216.436c13.964 0 23.273 9.309 23.273 23.273s-11.636 23.273-23.273 23.273z" />
<glyph unicode="&#xe610;" d="M546.909 442.182l337.455 339.782c9.309 9.309 9.309 23.273 0 32.582s-25.6 9.309-34.909 0l-337.455-339.782-339.782 339.782c-9.309 9.309-23.273 9.309-32.582 0s-9.309-23.273 0-32.582l337.455-339.782-337.455-339.782c-9.309-9.309-9.309-23.273 0-32.582 4.655-4.655 11.636-6.982 16.291-6.982s11.636 2.327 16.291 6.982l339.782 337.455 339.782-337.455c4.655-4.655 11.636-6.982 16.291-6.982s11.636 2.327 16.291 6.982c9.309 9.309 9.309 25.6 0 34.909l-337.455 337.455z" />
<glyph unicode="&#xe611;" d="M512 844.8c221.091 0 402.618-181.527 402.618-402.618s-181.527-402.618-402.618-402.618-402.618 181.527-402.618 402.618 181.527 402.618 402.618 402.618zM512 891.346c-249.018 0-449.164-200.145-449.164-449.164s200.145-449.164 449.164-449.164 449.164 200.145 449.164 449.164-200.145 449.164-449.164 449.164v0zM751.709 418.909h-479.418c-13.964 0-23.273 9.309-23.273 23.273s9.309 23.273 23.273 23.273h479.418c13.964 0 23.273-9.309 23.273-23.273s-11.636-23.273-23.273-23.273z" />
<glyph unicode="&#xe612;" d="M798.255 840.146l67.491-67.491-542.255-544.582-121.018-58.182 53.527 125.673 542.255 544.582zM798.255 886.691c-13.964 0-23.273-4.655-34.909-13.964l-542.255-542.255c-4.655-4.655-9.309-9.309-9.309-13.964l-58.182-125.673c-9.309-18.618-4.655-39.564 9.309-53.527 9.309-9.309 18.618-13.964 34.909-13.964 4.655 0 13.964 0 18.618 4.655l121.018 58.182c4.655 0 9.309 4.655 13.964 9.309l549.236 542.255c18.618 18.618 18.618 48.873 0 67.491l-67.491 67.491c-6.982 9.309-20.945 13.964-34.909 13.964v0 0zM798.255-2.327h-663.273c-13.964 0-23.273 9.309-23.273 23.273s9.309 23.273 23.273 23.273h663.273c13.964 0 23.273-9.309 23.273-23.273s-13.964-23.273-23.273-23.273z" />
<glyph unicode="&#xe613;" d="M339.782 311.855l-34.909-76.8 76.8 34.909 337.455 337.455-41.891 41.891zM512 954.182c-283.927 0-512-228.073-512-512s228.073-512 512-512 512 228.073 512 512-228.073 512-512 512zM740.073 586.473l-337.455-337.455c-2.327-2.327-6.982-2.327-9.309-6.982l-74.473-37.236c-2.327-2.327-9.309-2.327-11.636-2.327-9.309 0-13.964 2.327-20.945 9.309-9.309 9.309-11.636 20.945-6.982 32.582l37.236 79.127c0 2.327 2.327 6.982 6.982 9.309l337.455 337.455c6.982 6.982 11.636 9.309 20.945 9.309v0c9.309 0 13.964-2.327 20.945-9.309l41.891-41.891c9.309-11.636 9.309-30.255-4.655-41.891z" />
<glyph unicode="&#xe614;" d="M761.018 702.837l-20.945-9.309-30.255 74.473c-20.945 48.873-67.491 76.8-118.691 76.8-9.309 0-16.291 0-25.6-2.327 0-2.327 2.327-6.982 2.327-9.309 0-6.982 2.327-9.309 2.327-16.291 6.982 0 11.636 2.327 18.618 2.327 39.564 0 76.8-20.945 93.091-62.836l30.255-74.473-186.182-83.782-27.927 62.836c-6.982-6.982-16.291-9.309-25.6-11.636l27.927-62.836-20.945-9.309 100.073-221.091 279.273 123.345-97.745 223.418zM481.745 914.618c-25.6 16.291-48.873 25.6-76.8 25.6-44.218 0-90.764-20.945-114.036-62.836-30.255-46.545-30.255-104.727-2.327-151.273l-123.345-186.182 20.945-67.491 72.145 6.982 27.927 44.218-11.636 37.236 37.236 53.527 39.564 2.327 30.255 46.545c9.309 0 16.291-2.327 25.6-2.327 44.218 0 90.764 20.945 114.036 62.836 41.891 62.836 25.6 148.945-39.564 190.836zM463.127 807.564c-9.309-11.636-20.945-18.618-34.909-18.618-9.309 0-16.291 2.327-25.6 6.982-18.618 11.636-25.6 39.564-11.636 58.182 9.309 11.636 20.945 18.618 34.909 18.618 9.309 0 16.291-2.327 25.6-6.982 18.618-11.636 25.6-39.564 11.636-58.182zM500.364 25.6c2.327-2.327 2.327-2.327 4.655-2.327s4.655-2.327 6.982-2.327c2.327 0 4.655 0 6.982 2.327 2.327 0 4.655 2.327 4.655 2.327l114.036 114.036c6.982 6.982 6.982 16.291 0 20.945-6.982 6.982-16.291 6.982-20.945 0l-88.436-88.436v230.4c0 9.309-6.982 16.291-16.291 16.291s-16.291-6.982-16.291-16.291v-228.073l-86.109 88.436c-6.982 6.982-16.291 6.982-20.945 0-6.982-6.982-6.982-16.291 0-20.945l111.709-116.364zM758.691-23.273h-493.382c-9.309 0-16.291-6.982-16.291-16.291s6.982-16.291 16.291-16.291h493.382c9.309 0 16.291 6.982 16.291 16.291s-6.982 16.291-16.291 16.291z" />
<glyph unicode="&#xe615;" d="M833.164 514.327l-32.582-13.964c0 0 0 0 0 0l-41.891 95.418c-34.909 76.8-121.018 114.036-200.145 88.436-11.636 46.545-39.564 86.109-79.127 114.036-30.255 20.945-67.491 32.582-104.727 32.582-62.836 0-123.345-32.582-158.255-83.782-39.564-65.164-41.891-141.964-6.982-204.8l-155.927-235.055c-2.327-2.327-2.327-6.982-2.327-9.309l27.927-88.436c2.327-4.655 6.982-9.309 11.636-9.309 0 0 0 0 0 0l95.418 9.309c2.327 0 6.982 2.327 9.309 4.655l37.236 55.855c0 2.327 0 6.982 0 9.309l-11.636 44.218 39.564 60.509 44.218 4.655c2.327 0 6.982 2.327 9.309 4.655l37.236 55.855c9.309 0 16.291-2.327 25.6-2.327 30.255 0 60.509 6.982 88.436 20.945 0-2.327 0-2.327 2.327-4.655l41.891-95.418-32.582-13.964 123.345-283.927 360.727 160.582-128 283.927zM346.764 472.437c-4.655 0-9.309-2.327-11.636-4.655l-37.236-55.855-44.218-4.655c-2.327 0-6.982-2.327-9.309-4.655l-46.545-69.818c-2.327-2.327-2.327-6.982-2.327-9.309l13.964-44.218-30.255-46.545-79.127-6.982-23.273 74.473 158.255 235.055c2.327 4.655 2.327 9.309 0 11.636-34.909 55.855-34.909 128 2.327 181.527 30.255 46.545 83.782 74.473 139.636 74.473 32.582 0 65.164-9.309 93.091-27.927 37.236-25.6 62.836-65.164 72.145-109.382 0-2.327 0-4.655 0-4.655s0 0 0 0c6.982-41.891-2.327-81.455-25.6-116.364-30.255-46.545-83.782-74.473-139.636-74.473-11.636 0-20.945 0-30.255 2.327zM486.4 472.437c0 2.327-2.327 4.655-2.327 6.982 18.618 13.964 37.236 30.255 51.2 51.2 25.6 37.236 34.909 81.455 30.255 128 67.491 25.6 144.291-6.982 174.545-74.473l41.891-95.418c0 0 0 0 0 0l-253.673-111.709-41.891 95.418zM505.018 342.109l316.509 139.636 107.055-242.036-316.509-139.636-107.055 242.036zM439.855 735.418c-11.636 6.982-23.273 11.636-37.236 11.636-23.273 0-41.891-11.636-55.855-30.255-20.945-30.255-11.636-72.145 18.618-90.764 11.636-6.982 23.273-11.636 37.236-11.636 23.273 0 41.891 11.636 55.855 30.255 20.945 27.927 11.636 69.818-18.618 90.764zM439.855 656.291c-11.636-18.618-39.564-25.6-60.509-11.636-18.618 13.964-25.6 39.564-11.636 60.509 6.982 11.636 20.945 18.618 34.909 18.618 9.309 0 16.291-2.327 23.273-6.982 20.945-13.964 27.927-41.891 13.964-60.509z" />
<glyph unicode="&#xe616;" d="M349.091 728.437l139.636 139.636v-588.8c0-13.964 9.309-23.273 23.273-23.273s23.273 9.309 23.273 23.273v588.8l139.636-139.636c4.655-4.655 11.636-6.982 16.291-6.982s11.636 2.327 16.291 6.982c9.309 9.309 9.309 23.273 0 32.582l-179.2 179.2c-2.327 2.327-4.655 4.655-6.982 4.655-2.327 2.327-6.982 2.327-9.309 2.327s-6.982 0-9.309-2.327c-2.327-2.327-4.655-2.327-6.982-4.655l-179.2-179.2c-9.309-9.309-9.309-23.273 0-32.582s23.273-9.309 32.582 0zM788.945-69.818h-553.891c-39.564 0-69.818 30.255-69.818 69.818v509.673c0 39.564 30.255 69.818 69.818 69.818h137.309c13.964 0 23.273-9.309 23.273-23.273s-9.309-23.273-23.273-23.273h-137.309c-13.964 0-23.273-9.309-23.273-23.273v-509.673c0-13.964 9.309-23.273 23.273-23.273h551.564c13.964 0 23.273 9.309 23.273 23.273v509.673c0 13.964-9.309 23.273-23.273 23.273h-134.982c-13.964 0-23.273 9.309-23.273 23.273s9.309 23.273 23.273 23.273h137.309c39.564 0 69.818-30.255 69.818-69.818v-509.673c0-39.564-32.582-69.818-69.818-69.818z" />
<glyph unicode="&#xe617;" d="M900.655 637.673l-193.164 195.491c-4.655 2.327-11.636 4.655-18.618 4.655h-549.236c-11.636 0-23.273-11.636-23.273-23.273v-744.727c0-13.964 11.636-23.273 23.273-23.273h744.727c13.964 0 23.273 11.636 23.273 23.273v549.236c0 6.982-2.327 13.964-6.982 18.618zM858.764 95.418h-693.527v693.527h514.327l179.2-179.2v-514.327zM646.982 730.764h-377.018c-13.964 0-23.273-11.636-23.273-23.273v-193.164c0-13.964 11.636-23.273 23.273-23.273h377.018c13.964 0 23.273 11.636 23.273 23.273v193.164c0 13.964-11.636 23.273-23.273 23.273zM293.236 684.218h221.091v-144.291h-221.091v144.291zM621.382 537.6h-60.509v144.291h60.509v-144.291z" />
<glyph unicode="&#xe618;" d="M420.978 132.706c-4.551 0-11.378 2.276-15.929 6.827l-323.129 286.72c-9.102 9.102-9.102 22.756-2.276 31.858 9.102 9.102 22.756 9.102 31.858 2.276l307.2-275.342 491.52 559.787c9.102 9.102 22.756 11.378 31.858 2.276s11.378-22.756 2.276-31.858l-505.173-575.716c-4.551-4.551-11.378-6.827-18.204-6.827 2.276 0 0 0 0 0z" />
<glyph unicode="&#xe619;" d="M426.667 783.515v-128h94.507l-146.347-341.333h-118.827v-128h341.333v128h-94.507l146.347 341.333h118.827v128z" />
<glyph unicode="&#xe61a;" d="M170.667 506.182c-35.413 0-64-28.587-64-64s28.587-64 64-64 64 28.587 64 64-28.587 64-64 64zM170.667 762.182c-35.413 0-64-28.587-64-64s28.587-64 64-64 64 28.587 64 64-28.587 64-64 64zM170.667 243.142c-31.36 0-56.96-25.387-56.96-56.96s25.6-56.96 56.96-56.96 56.96 25.387 56.96 56.96-25.6 56.96-56.96 56.96zM298.667 143.515h597.333v85.333h-597.333v-85.333zM298.667 399.515h597.333v85.333h-597.333v-85.333zM298.667 740.849v-85.333h597.333v85.333h-597.333z" />
<glyph unicode="&#xe61b;" d="M85.333 228.849h85.333v-21.333h-42.667v-42.667h42.667v-21.333h-85.333v-42.667h128v170.667h-128v-42.667zM128 612.849h42.667v170.667h-85.333v-42.667h42.667v-128zM85.333 484.849h76.8l-76.8-89.6v-38.4h128v42.667h-76.8l76.8 89.6v38.4h-128v-42.667zM298.667 740.849v-85.333h597.333v85.333h-597.333zM298.667 143.515h597.333v85.333h-597.333v-85.333zM298.667 399.515h597.333v85.333h-597.333v-85.333z" />
<glyph unicode="&#xe61c;" d="M512 228.849c141.44 0 256 114.56 256 256v341.333h-106.667v-341.333c0-82.56-66.773-149.333-149.333-149.333s-149.333 66.773-149.333 149.333v341.333h-106.667v-341.333c0-141.44 114.56-256 256-256zM213.333 143.515v-85.333h597.333v85.333h-597.333z" />
<glyph unicode="&#xe61d;" d="M311.411 812.028v-320.383h392.391v320.383h99.141v-745.104h-99.141v341.234h-392.391v-341.234h-99.141v745.104h99.141z" />
<glyph unicode="&#xe61e;" d="M337.256 764.374v-279.103h341.833v279.103h86.367v-649.101h-86.367v297.268h-341.833v-297.268h-86.367v649.101h86.367z" />
<glyph unicode="&#xe61f;" d="M359.771 722.861v-243.142h297.79v243.142h75.239v-565.468h-75.239v258.966h-297.79v-258.966h-75.239v565.468h75.239z" />
<glyph unicode="&#xe620;" d="M786.618 414.255l-251.345-251.345v721.455c0 30.255-46.545 30.255-46.545 0v-721.455l-251.345 251.345c-20.945 20.945-55.855-11.636-34.909-34.909l290.909-290.909c6.982-6.982 20.945-9.309 30.255-2.327v0c2.327 0 2.327 2.327 4.655 2.327l290.909 290.909c9.309 9.309 9.309 25.6 0 34.909s-23.273 9.309-32.582 0zM868.073 30.255h-712.145c-30.255 0-30.255-48.873 0-48.873h709.818c32.582 0 32.582 48.873 2.327 48.873z" />
<glyph unicode="&#xe621;" d="M384 768c20.945 20.945 55.855-11.636 34.909-34.909l-246.691-246.691h744.727c30.255 0 30.255-48.873 0-48.873h-747.055l246.691-244.364c20.945-20.945-11.636-55.855-34.909-34.909l-288.582 288.582c0 0 0 0-2.327 2.327-6.982 9.309-6.982 23.273 2.327 32.582l290.909 286.255z" />
<glyph unicode="&#xe622;" d="M870.4 356.073c-11.636 4.655-25.6-2.327-27.927-16.291-44.218-141.964-172.218-239.709-318.836-244.364-130.327-2.327-251.345 67.491-314.182 179.2l121.018-34.909c11.636-4.655 25.6 2.327 27.927 16.291 4.655 11.636-2.327 25.6-16.291 27.927l-169.891 48.873c0 0-2.327 0-2.327 0-2.327 0-2.327 0-4.655 0s-2.327 0-4.655 0c0 0-2.327 0-2.327 0s0 0-2.327 0-2.327-2.327-4.655-2.327c0 0-2.327-2.327-2.327-2.327s-2.327-2.327-2.327-4.655c0-2.327-2.327-2.327-2.327-4.655 0 0 0 0 0-2.327l-48.873-169.891c-4.655-11.636 2.327-25.6 16.291-27.927 2.327 0 4.655 0 6.982 0 9.309 0 18.618 6.982 23.273 16.291l32.582 111.709c69.818-121.018 197.818-195.491 339.782-195.491 4.655 0 9.309 0 13.964 0 167.564 4.655 311.855 116.364 360.727 276.945 2.327 11.636-4.655 25.6-18.618 27.927zM912.291 765.673c-11.636 4.655-25.6-2.327-27.927-16.291l-32.582-111.709c-72.145 123.345-204.8 200.145-353.745 195.491-167.564-4.655-311.855-116.364-360.727-276.945-4.655-11.636 2.327-25.6 16.291-27.927 2.327 0 4.655 0 6.982 0 9.309 0 18.618 6.982 23.273 16.291 44.218 141.964 172.218 239.709 318.836 244.364 128 4.655 249.018-67.491 311.855-179.2l-121.018 34.909c-11.636 4.655-25.6-2.327-27.927-16.291-4.655-11.636 2.327-25.6 16.291-27.927l169.891-48.873c2.327 0 2.327 0 4.655 0 0 0 0 0 2.327 0 0 0 0 0 0 0 2.327 0 4.655 0 6.982 2.327 0 0 0 0 0 0s0 0 0 0 2.327 0 2.327 0c0 0 2.327 2.327 2.327 2.327 2.327 0 2.327 2.327 2.327 2.327s2.327 2.327 2.327 2.327c0 2.327 2.327 2.327 2.327 4.655 0 0 0 0 0 2.327l48.873 169.891c6.982 11.636 0 25.6-13.964 27.927z" />
<glyph unicode="&#xf121;" d="M385.486 203.039l-23.771-23.771q-4.754-4.754-10.936-4.754t-10.936 4.754l-221.552 221.552q-4.754 4.754-4.754 10.936t4.754 10.936l221.552 221.552q4.754 4.754 10.936 4.754t10.936-4.754l23.771-23.771q4.754-4.754 4.754-10.936t-4.754-10.936l-186.844-186.844 186.844-186.844q4.754-4.754 4.754-10.936t-4.754-10.936zM666.467 710.325l-177.337-613.782q-1.903-6.18-7.371-9.271t-11.174-1.189l-29.477 8.082q-6.181 1.903-9.27 7.369t-1.189 11.648l177.337 613.782q1.903 6.18 7.369 9.27t11.173 1.189l29.477-8.082q6.18-1.903 9.271-7.371t1.189-11.648zM978.825 400.82l-221.552-221.552q-4.754-4.754-10.936-4.754t-10.936 4.754l-23.771 23.771q-4.754 4.754-4.754 10.936t4.754 10.936l186.844 186.844-186.844 186.844q-4.754 4.754-4.754 10.936t4.754 10.936l23.771 23.771q4.754 4.754 10.936 4.754t10.936-4.754l221.552-221.552q4.754-4.754 4.754-10.936t-4.754-10.936z" horiz-adv-x="1097" />
</font>
</defs>
</svg>
